<svg width="56" height="56" viewBox="0 0 56 56" fill="none" xmlns="http://www.w3.org/2000/svg">
<path fill-rule="evenodd" clip-rule="evenodd" d="M18.4444 7.68421L18.4444 50.3158C18.4444 50.6299 18.3157 50.9311 18.0865 51.1532C17.8573 51.3752 17.5464 51.5 17.2222 51.5C16.8981 51.5 16.5872 51.3752 16.358 51.1532C16.1288 50.9311 16 50.6299 16 50.3158L16 7.68421C16 7.37014 16.1288 7.06893 16.358 6.84685C16.5872 6.62476 16.8981 6.5 17.2222 6.5C17.5464 6.5 17.8573 6.62476 18.0865 6.84685C18.3157 7.06893 18.4444 7.37014 18.4444 7.68421ZM38 7.68421V50.3158C38 50.6299 37.8712 50.9311 37.642 51.1532C37.4128 51.3752 37.1019 51.5 36.7778 51.5C36.4536 51.5 36.1427 51.3752 35.9135 51.1532C35.6843 50.9311 35.5556 50.6299 35.5556 50.3158V7.68421C35.5556 7.37014 35.6843 7.06893 35.9135 6.84685C36.1427 6.62476 36.4536 6.5 36.7778 6.5C37.1019 6.5 37.4128 6.62476 37.642 6.84685C37.8712 7.06893 38 7.37014 38 7.68421Z" fill="#0071FE"/>
</svg>
