<svg width="55" height="56" viewBox="0 0 55 56" xmlns="http://www.w3.org/2000/svg">
  <path d="M48.8975 10.0935C50.687 9.78121 51.8761 8.08776 51.5639 6.29822C51.2876 4.72478 49.9184 3.5718 48.321 3.58383H42.3998L40.8985 3.58396H28.5275H24.6963H13.3222L10.92 3.58383H8.74609C6.93249 3.58383 5.46718 5.04914 5.45515 6.86274C5.44312 8.67634 6.92046 10.1417 8.73406 10.1537L10.848 45.729L10.9561 47.5546C11.1242 50.4251 13.5023 52.6711 16.3849 52.6711H41.2588C44.1293 52.6591 46.5074 50.4252 46.6876 47.5546L46.7957 45.729L48.8975 10.0935ZM42.712 41.285L45.4504 44.0235L45.7867 38.2464L42.712 41.285ZM37.5476 38.1263L34.2686 41.3571L37.4275 44.4799L40.6704 41.273L37.5476 38.1263ZM26.0894 41.3571L29.1521 44.3838L32.2148 41.3571L29.1521 38.3424L26.0894 41.3571ZM17.3456 40.9849L20.8768 44.4799L24.0355 41.3572L20.5044 37.8741L17.3456 40.9849ZM11.8088 37.5498L12.1931 44.0475L15.2919 40.9849L11.8088 37.5498ZM32.7793 23.7376L29.128 20.1225L25.3568 23.8457L28.984 27.485L32.7793 23.7376ZM20.5044 18.9695L24.3478 22.8248L28.1071 19.1137L24.2397 15.2823L20.5044 18.9695ZM33.9804 15.3423L30.161 19.1136L33.8122 22.7289L37.5835 18.9935L33.9804 15.3423ZM25.2607 14.2732L29.1401 18.1046L32.9715 14.3092L29.1521 10.4298L25.2607 14.2732ZM37.1991 10.1417H30.8816L34.0043 13.3004L37.1991 10.1417ZM21.093 10.1415L24.2397 13.2523L27.3866 10.1415H21.093ZM23.2069 14.2613L19.6878 10.7782L15.9164 14.3574L19.4836 17.9485L23.2069 14.2613ZM11.7247 10.1417L14.8955 13.3365L18.2705 10.1417H11.7247ZM15.0036 22.3564L18.4506 18.9573L14.8595 15.3422L11.3044 18.7172L15.0036 22.3564ZM23.315 23.8336L19.4716 19.9783L16.0367 23.3772L19.9041 27.1966L23.315 23.8336ZM15.8203 31.2322L18.883 28.2175L15.0036 24.3861L11.9409 27.4128L15.8203 31.2322ZM23.5672 32.8296L19.9039 29.2264L16.8413 32.2411L20.5045 35.8442L23.5672 32.8296ZM24.336 24.8545L20.9369 28.2175L24.5881 31.8206L27.9511 28.4938L24.336 24.8545ZM32.479 33.0338L28.9719 29.5147L25.621 32.8296L29.1521 36.3127L32.479 33.0338ZM33.8002 24.7464L29.9929 28.5058L33.4999 32.0247L37.3313 28.2414L33.8002 24.7464ZM41.4149 32.2772L38.3643 29.2505L34.5208 33.0459L37.5476 36.0966L41.4149 32.2772ZM43.0963 24.5783L39.3851 28.2416L42.4479 31.2681L46.1231 27.6409L43.0963 24.5783ZM34.833 23.7376L38.3643 27.2327L42.0874 23.5575L38.6043 20.0143L34.833 23.7376ZM43.1685 15.5104L39.6254 19.0054L43.1085 22.5367L46.6276 19.0656L43.1685 15.5104ZM35.0133 14.3332L38.6165 17.9845L42.1716 14.4773L38.5924 10.8021L35.0133 14.3332ZM46.5554 10.1417H39.9737L43.1924 13.4685L46.5554 10.1417ZM10.6078 17.384L13.8506 14.3213L10.2114 10.6821L10.6078 17.384ZM11.1361 26.1758L13.9827 23.3773L10.7758 20.2186L11.1361 26.1758ZM11.6767 35.3278L14.7875 32.2411L11.2923 28.7941L11.6767 35.3278ZM15.8203 33.2619L12.6616 36.3727L16.3128 39.9758L19.4716 36.865L15.8203 33.2619ZM24.588 33.8385L21.5253 36.8652L25.0564 40.3483L28.1191 37.3216L24.588 33.8385ZM33.4879 34.0547L30.173 37.3216L33.2356 40.3482L36.5265 37.1053L33.4879 34.0547ZM42.4478 33.298L38.5684 37.1174L41.7031 40.2642L45.5945 36.4208L42.4478 33.298ZM43.4687 32.2891L45.9909 34.7874L46.3032 29.4786L43.4687 32.2891ZM44.1293 23.5695L46.5195 25.9956L46.8196 20.9151L44.1293 23.5695ZM44.2013 14.5015L47.0239 17.4081L47.3842 11.3548L44.2013 14.5015ZM19.3034 44.9483L16.3128 42.0057L13.3222 44.9483H19.3034ZM27.6747 44.9483L25.0564 42.378L22.4502 44.9483H27.6747ZM35.854 44.9483L33.2357 42.378L30.6294 44.9483H35.854ZM44.3335 44.9483L41.6912 42.2939L38.9888 44.9483H44.3335ZM8.74622 5.02509C7.73731 5.02509 6.90856 5.85384 6.90856 6.86274C6.92046 7.87165 7.73718 8.68837 8.74609 8.7004H48.321C49.3299 8.7004 50.1587 7.87165 50.1587 6.86274C50.1587 5.85384 49.3299 5.02509 48.321 5.02509H8.74622ZM41.2588 51.2179C43.3727 51.2179 45.1142 49.5724 45.2463 47.4585L45.3063 46.3896H12.3253L12.3973 47.4585C12.5295 49.5724 14.271 51.2179 16.3849 51.2179H41.2588Z" />
</svg>
