<svg width="70" height="70" viewBox="0 0 70 70" fill="none" xmlns="http://www.w3.org/2000/svg">
<g clip-path="url(#clip0_8169_356)">
<path fill-rule="evenodd" clip-rule="evenodd" d="M45.3959 54.9913C44.0427 54.9913 43.7556 52.9819 45.1089 52.6539L47.3233 52.0388V47.979C46.2981 48.2661 44.6578 49.0452 44.2477 47.5689C43.8786 46.0927 45.847 45.9286 47.3233 45.5186V41.4998C46.2981 41.7459 44.6578 42.525 44.2477 41.0897C43.8786 39.5725 45.847 39.4084 47.3233 39.0394V34.9796C46.2981 35.2257 44.6578 36.0048 44.2477 34.5695C43.8786 33.0522 45.847 32.8882 47.3233 32.5191V25.1378C46.5851 25.1378 45.1909 25.3018 45.1909 23.9486V18.7816H39.1218C38.4656 18.7816 37.9325 18.2485 37.9325 17.5924V10.4981C37.9325 9.84194 38.4656 9.30884 39.1218 9.30884H68.8113C69.4674 9.30884 70.0005 9.84194 70.0005 10.4981V17.5924C70.0005 18.2485 69.4674 18.7816 68.8113 18.7816H62.7011V23.9486C62.7011 25.3018 61.3069 25.1378 60.6097 25.1378V28.9515C61.6759 28.6644 63.2752 27.9263 63.6443 29.3616C64.0544 30.8378 62.045 31.0019 60.6097 31.4119V35.4717C61.6759 35.1846 63.2752 34.4465 63.6443 35.8818C64.0544 37.358 62.045 37.5221 60.6097 37.9322V41.9919C61.6759 41.7049 63.2752 40.9667 63.6443 42.402C64.0544 43.8783 62.045 44.0423 60.6097 44.4524V48.5121C61.6759 48.1841 63.2752 47.4869 63.6443 48.9222C64.0544 50.3985 62.045 50.5625 60.6097 50.9316V59.5022C60.6097 60.1583 60.0766 60.6914 59.4205 60.6914H48.5125C47.8564 60.6914 47.3233 60.1583 47.3233 59.5022V54.4992L45.3959 54.9913ZM29.2389 60.6914H10.5394C10.1294 60.6914 9.7193 60.4453 9.51426 60.0763L0.164521 43.8783C-0.0405173 43.5092 -0.0405173 43.0581 0.164521 42.689L9.51426 26.491C9.7193 26.122 10.1294 25.9169 10.5394 25.9169H29.2389C29.69 25.9169 30.0591 26.122 30.2641 26.491L39.6549 42.689C39.8599 43.0581 39.8599 43.5092 39.6549 43.8783L30.2641 60.0763C30.0591 60.4453 29.69 60.6914 29.2389 60.6914ZM11.2366 58.3129H18.7V52.2028H15.4194C15.0093 52.2028 14.5992 51.9978 14.3942 51.6287L9.92433 43.8783C9.7193 43.5092 9.7193 43.0581 9.92433 42.689L14.3942 34.9796C14.5992 34.6105 15.0093 34.3645 15.4194 34.3645H18.7V28.2954H11.2366L2.54296 43.3041L11.2366 58.3129ZM21.0784 58.3129H28.5828L37.2354 43.3041L28.5828 28.2954H21.0784V34.3645H24.359C24.7691 34.3645 25.1792 34.6105 25.3842 34.9796L29.854 42.689C30.0591 43.0581 30.0591 43.5092 29.854 43.8783L25.3842 51.6287C25.1792 51.9978 24.7691 52.2028 24.359 52.2028H21.0784V58.3129ZM46.3801 16.4032H67.622V11.6873H40.311V16.4032H46.3801ZM48.5125 22.7593H60.3227V18.7816H47.5693V22.7593H48.5125ZM49.7017 51.4237L58.2313 49.1272V45.0675L49.7017 47.3639V51.4237ZM58.2313 51.5877L49.7017 53.8841V58.3129H58.2313V51.5877ZM58.2313 42.607V38.5473L49.7017 40.8437V44.9035L58.2313 42.607ZM58.2313 36.0868V32.0271L49.7017 34.3235V38.3832L58.2313 36.0868ZM58.2313 29.5666V25.1378H49.7017V31.863L58.2313 29.5666ZM16.1165 49.8244H23.6619L27.4346 43.3041L23.6619 36.7429H16.1165L12.3438 43.3041L16.1165 49.8244Z" fill="#0071FE"/>
</g>
<defs>
<clipPath id="clip0_8169_356">
<rect width="70" height="70" fill="white"/>
</clipPath>
</defs>
</svg>
