<svg width="60" height="60" viewBox="0 0 60 60" fill="none" xmlns="http://www.w3.org/2000/svg">
<path d="M40.4768 34.793L45.7502 19.7461C46.2541 18.3164 46.1018 16.7344 45.3284 15.4336L41.8948 9.63281V1.21875C41.8948 0.550781 41.344 0 40.6643 0C39.9846 0 39.4455 0.550781 39.4455 1.21875V8.73047H20.5549V1.21875C20.5549 0.550781 20.0041 0 19.3362 0C18.6565 0 18.1174 0.550781 18.1174 1.21875V9.63281L14.6838 15.4336C13.9104 16.7461 13.758 18.3164 14.2619 19.7461L19.5354 34.793C20.2502 36.8438 22.1955 38.2266 24.3752 38.2266H24.7971C25.3596 41.7539 27.2112 45.1172 30.4104 47.3203C31.4299 48.0234 32.426 48.2109 32.7307 49.5938C33.1174 51.3984 31.8166 52.9805 30.0354 53.2266C27.9846 53.5781 25.8401 52.0078 25.594 49.5C25.4768 48.2578 24.4807 47.3086 23.2385 47.2266C21.844 47.1328 20.6369 48.1875 20.5432 49.582C20.1799 55.1367 24.7268 59.9531 30.3635 59.9883C30.4807 59.9883 30.5862 60 30.7034 60C36.5159 60 41.426 54.9492 41.2034 48.8203C41.133 45.7734 39.7268 42.7266 37.4065 40.6758C36.7385 40.0547 35.8362 39.7266 35.4963 38.2383C35.5432 38.2031 39.2112 38.4023 40.4768 34.793ZM21.8323 33.9844L16.5588 18.9375C16.301 18.1875 16.383 17.3672 16.7815 16.6875L20.0393 11.1797H39.9612L43.219 16.6875C43.6291 17.3672 43.7112 18.1875 43.4416 18.9375L38.1682 33.9844C37.7932 35.0625 36.7737 35.7773 35.6369 35.7773H24.3635C23.2268 35.7773 22.2073 35.0625 21.8323 33.9844ZM35.7541 42.4922C37.5705 44.1094 38.6838 46.4883 38.7307 48.8906C38.9065 53.7422 34.969 57.7148 30.3987 57.5508C26.0393 57.5273 22.7112 53.8125 22.969 49.7578C22.969 49.7227 23.0159 49.6875 23.051 49.6875C23.0979 49.6875 23.1213 49.7344 23.133 49.8047C23.508 53.6484 26.9651 56.25 30.3752 55.6641C33.4807 55.2422 35.7893 52.3359 35.0979 49.0898C34.6174 46.8281 33.1643 46.2773 31.7698 45.3047C29.3205 43.6289 27.8088 41.0742 27.258 38.2266H32.9885C33.3401 40.6641 34.5119 41.4492 35.7541 42.4922Z" fill="#0071FE"/>
<path d="M38.0391 23.4844C38.0391 19.043 34.4297 15.4336 29.9883 15.4336C25.5586 15.4336 21.9492 19.043 21.9492 23.4844C21.9492 27.9258 25.5586 31.5352 29.9883 31.5352C34.4297 31.5234 38.0391 27.9141 38.0391 23.4844ZM30 29.0742C26.918 29.0742 24.4102 26.5664 24.4102 23.4727C24.4102 20.3906 26.918 17.8711 30 17.8711C33.082 17.8711 35.6016 20.3789 35.6016 23.4727C35.5898 26.5664 33.082 29.0742 30 29.0742Z" fill="#0071FE"/>
</svg>
