<?xml version="1.0" standalone="no"?>
<!DOCTYPE svg PUBLIC "-//W3C//DTD SVG 20010904//EN"
 "http://www.w3.org/TR/2001/REC-SVG-20010904/DTD/svg10.dtd">
<svg version="1.0" xmlns="http://www.w3.org/2000/svg"
 width="36.000000pt" height="60.000000pt" viewBox="0 0 36.000000 60.000000"
 preserveAspectRatio="xMidYMid meet">

<g transform="translate(0.000000,60.000000) scale(0.100000,-0.100000)"
fill="#000000" stroke="none">
<path d="M54 569 c-4 -6 -8 -126 -10 -266 -2 -139 -6 -258 -9 -263 -4 -6 48
-10 140 -10 104 0 144 3 139 11 -3 6 -7 124 -8 263 0 138 -5 257 -9 264 -11
16 -233 17 -243 1z m221 -111 c3 -51 5 -158 3 -238 l-3 -145 -100 0 -100 0 -3
238 -2 237 99 0 99 0 7 -92z"/>
</g>
</svg>
