<svg xmlns="http://www.w3.org/2000/svg" width="58" height="57" viewBox="0 0 58 57" version="1.1"><path d="M 26 0.500 C 26 0.775, 26.225 1, 26.500 1 C 26.775 1, 27 0.775, 27 0.500 C 27 0.225, 26.775 0, 26.500 0 C 26.225 0, 26 0.225, 26 0.500 M 31.333 0.667 C 31.700 1.033, 32.300 1.033, 32.667 0.667 C 33.033 0.300, 32.733 -0, 32 -0 C 31.267 -0, 30.967 0.300, 31.333 0.667 M 19 1.500 C 19 1.775, 19.225 2, 19.500 2 C 19.775 2, 20 1.775, 20 1.500 C 20 1.225, 19.775 1, 19.500 1 C 19.225 1, 19 1.225, 19 1.500 M 17 2.500 C 17 2.775, 17.225 3, 17.500 3 C 17.775 3, 18 2.775, 18 2.500 C 18 2.225, 17.775 2, 17.500 2 C 17.225 2, 17 2.225, 17 2.500 M 33.333 3.667 C 33.700 4.033, 34.300 4.033, 34.667 3.667 C 35.033 3.300, 34.733 3, 34 3 C 33.267 3, 32.967 3.300, 33.333 3.667 M 21 5.500 C 21 5.775, 21.225 6, 21.500 6 C 21.775 6, 22 5.775, 22 5.500 C 22 5.225, 21.775 5, 21.500 5 C 21.225 5, 21 5.225, 21 5.500 M 39 5.500 C 39 5.775, 39.225 6, 39.500 6 C 39.775 6, 40 5.775, 40 5.500 C 40 5.225, 39.775 5, 39.500 5 C 39.225 5, 39 5.225, 39 5.500 M 18 6.500 C 18 6.775, 18.225 7, 18.500 7 C 18.775 7, 19 6.775, 19 6.500 C 19 6.225, 18.775 6, 18.500 6 C 18.225 6, 18 6.225, 18 6.500 M 47 6.500 C 47 6.775, 47.225 7, 47.500 7 C 47.775 7, 48 6.775, 48 6.500 C 48 6.225, 47.775 6, 47.500 6 C 47.225 6, 47 6.225, 47 6.500 M 24 7.500 C 24 7.775, 24.225 8, 24.500 8 C 24.775 8, 25 7.775, 25 7.500 C 25 7.225, 24.775 7, 24.500 7 C 24.225 7, 24 7.225, 24 7.500 M 42 7.500 C 42 7.775, 42.225 8, 42.500 8 C 42.775 8, 43 7.775, 43 7.500 C 43 7.225, 42.775 7, 42.500 7 C 42.225 7, 42 7.225, 42 7.500 M 6.613 9.183 C 6.902 9.650, 7.557 9.774, 8.069 9.457 C 9.377 8.649, 9.230 8.333, 7.544 8.333 C 6.743 8.333, 6.324 8.716, 6.613 9.183 M 36 8.500 C 36 8.775, 36.225 9, 36.500 9 C 36.775 9, 37 8.775, 37 8.500 C 37 8.225, 36.775 8, 36.500 8 C 36.225 8, 36 8.225, 36 8.500 M 3 9.500 C 3 9.775, 3.225 10, 3.500 10 C 3.775 10, 4 9.775, 4 9.500 C 4 9.225, 3.775 9, 3.500 9 C 3.225 9, 3 9.225, 3 9.500 M 25 9.500 C 25 9.775, 25.225 10, 25.500 10 C 25.775 10, 26 9.775, 26 9.500 C 26 9.225, 25.775 9, 25.500 9 C 25.225 9, 25 9.225, 25 9.500 M 42 9.500 C 42 9.775, 42.225 10, 42.500 10 C 42.775 10, 43 9.775, 43 9.500 C 43 9.225, 42.775 9, 42.500 9 C 42.225 9, 42 9.225, 42 9.500 M 12 10.500 C 12 10.775, 12.225 11, 12.500 11 C 12.775 11, 13 10.775, 13 10.500 C 13 10.225, 12.775 10, 12.500 10 C 12.225 10, 12 10.225, 12 10.500 M 51 10.500 C 51 10.775, 51.225 11, 51.500 11 C 51.775 11, 52 10.775, 52 10.500 C 52 10.225, 51.775 10, 51.500 10 C 51.225 10, 51 10.225, 51 10.500 M 14.603 11.833 C 14.320 12.292, 14.723 12.667, 15.500 12.667 C 16.277 12.667, 16.680 12.292, 16.397 11.833 C 16.114 11.375, 15.710 11, 15.500 11 C 15.290 11, 14.886 11.375, 14.603 11.833 M 25 11.500 C 25 11.775, 25.225 12, 25.500 12 C 25.775 12, 26 11.775, 26 11.500 C 26 11.225, 25.775 11, 25.500 11 C 25.225 11, 25 11.225, 25 11.500 M 45 12.500 C 45 12.775, 45.225 13, 45.500 13 C 45.775 13, 46 12.775, 46 12.500 C 46 12.225, 45.775 12, 45.500 12 C 45.225 12, 45 12.225, 45 12.500 M 9 13.500 C 9 13.775, 9.225 14, 9.500 14 C 9.775 14, 10 13.775, 10 13.500 C 10 13.225, 9.775 13, 9.500 13 C 9.225 13, 9 13.225, 9 13.500 M 18 13.500 C 18 13.775, 18.225 14, 18.500 14 C 18.775 14, 19 13.775, 19 13.500 C 19 13.225, 18.775 13, 18.500 13 C 18.225 13, 18 13.225, 18 13.500 M 25.079 14.583 C 25.127 15.748, 25.364 15.985, 25.683 15.188 C 25.972 14.466, 25.936 13.603, 25.604 13.271 C 25.272 12.939, 25.036 13.529, 25.079 14.583 M 30.079 14.583 C 30.127 15.748, 30.364 15.985, 30.683 15.188 C 30.972 14.466, 30.936 13.603, 30.604 13.271 C 30.272 12.939, 30.036 13.529, 30.079 14.583 M 48.500 14 C 48.840 14.550, 49.343 15, 49.618 15 C 49.893 15, 49.840 14.550, 49.500 14 C 49.160 13.450, 48.657 13, 48.382 13 C 48.107 13, 48.160 13.450, 48.500 14 M 52 14.500 C 52 14.775, 52.225 15, 52.500 15 C 52.775 15, 53 14.775, 53 14.500 C 53 14.225, 52.775 14, 52.500 14 C 52.225 14, 52 14.225, 52 14.500 M 3 15.500 C 3 15.775, 3.225 16, 3.500 16 C 3.775 16, 4 15.775, 4 15.500 C 4 15.225, 3.775 15, 3.500 15 C 3.225 15, 3 15.225, 3 15.500 M 40 15.500 C 40 15.775, 40.225 16, 40.500 16 C 40.775 16, 41 15.775, 41 15.500 C 41 15.225, 40.775 15, 40.500 15 C 40.225 15, 40 15.225, 40 15.500 M 7 16.500 C 7 16.775, 7.225 17, 7.500 17 C 7.775 17, 8 16.775, 8 16.500 C 8 16.225, 7.775 16, 7.500 16 C 7.225 16, 7 16.225, 7 16.500 M 48 16.500 C 48 16.775, 48.225 17, 48.500 17 C 48.775 17, 49 16.775, 49 16.500 C 49 16.225, 48.775 16, 48.500 16 C 48.225 16, 48 16.225, 48 16.500 M 53 16.500 C 53 16.775, 53.225 17, 53.500 17 C 53.775 17, 54 16.775, 54 16.500 C 54 16.225, 53.775 16, 53.500 16 C 53.225 16, 53 16.225, 53 16.500 M 12 17.500 C 12 17.775, 12.225 18, 12.500 18 C 12.775 18, 13 17.775, 13 17.500 C 13 17.225, 12.775 17, 12.500 17 C 12.225 17, 12 17.225, 12 17.500 M 43 17.500 C 43 17.775, 43.225 18, 43.500 18 C 43.775 18, 44 17.775, 44 17.500 C 44 17.225, 43.775 17, 43.500 17 C 43.225 17, 43 17.225, 43 17.500 M 9 18.500 C 9 18.775, 9.225 19, 9.500 19 C 9.775 19, 10 18.775, 10 18.500 C 10 18.225, 9.775 18, 9.500 18 C 9.225 18, 9 18.225, 9 18.500 M 15 18.500 C 15 18.775, 15.225 19, 15.500 19 C 15.775 19, 16 18.775, 16 18.500 C 16 18.225, 15.775 18, 15.500 18 C 15.225 18, 15 18.225, 15 18.500 M 18.459 19.067 C 18.096 19.653, 18.014 20.348, 18.276 20.610 C 18.538 20.872, 19.019 20.392, 19.345 19.543 C 20.021 17.781, 19.445 17.471, 18.459 19.067 M 22 18.500 C 22 18.775, 22.225 19, 22.500 19 C 22.775 19, 23 18.775, 23 18.500 C 23 18.225, 22.775 18, 22.500 18 C 22.225 18, 22 18.225, 22 18.500 M 29 18.500 C 29 18.775, 29.225 19, 29.500 19 C 29.775 19, 30 18.775, 30 18.500 C 30 18.225, 29.775 18, 29.500 18 C 29.225 18, 29 18.225, 29 18.500 M 33 18.500 C 33 18.775, 33.225 19, 33.500 19 C 33.775 19, 34 18.775, 34 18.500 C 34 18.225, 33.775 18, 33.500 18 C 33.225 18, 33 18.225, 33 18.500 M 37 18.500 C 37 18.775, 37.225 19, 37.500 19 C 37.775 19, 38 18.775, 38 18.500 C 38 18.225, 37.775 18, 37.500 18 C 37.225 18, 37 18.225, 37 18.500 M 25 19.500 C 25 19.775, 25.225 20, 25.500 20 C 25.775 20, 26 19.775, 26 19.500 C 26 19.225, 25.775 19, 25.500 19 C 25.225 19, 25 19.225, 25 19.500 M 54 20 C 54 20.733, 54.300 21.033, 54.667 20.667 C 55.033 20.300, 55.033 19.700, 54.667 19.333 C 54.300 18.967, 54 19.267, 54 20 M 30 20.500 C 30 20.775, 30.225 21, 30.500 21 C 30.775 21, 31 20.775, 31 20.500 C 31 20.225, 30.775 20, 30.500 20 C 30.225 20, 30 20.225, 30 20.500 M 40 20.500 C 40 20.775, 40.225 21, 40.500 21 C 40.775 21, 41 20.775, 41 20.500 C 41 20.225, 40.775 20, 40.500 20 C 40.225 20, 40 20.225, 40 20.500 M 3 21.500 C 3 21.775, 3.225 22, 3.500 22 C 3.775 22, 4 21.775, 4 21.500 C 4 21.225, 3.775 21, 3.500 21 C 3.225 21, 3 21.225, 3 21.500 M 25 22 C 25 22.733, 25.300 23.033, 25.667 22.667 C 26.033 22.300, 26.033 21.700, 25.667 21.333 C 25.300 20.967, 25 21.267, 25 22 M 30 22.500 C 30 22.775, 30.225 23, 30.500 23 C 30.775 23, 31 22.775, 31 22.500 C 31 22.225, 30.775 22, 30.500 22 C 30.225 22, 30 22.225, 30 22.500 M 3 23.500 C 3 23.775, 3.225 24, 3.500 24 C 3.775 24, 4 23.775, 4 23.500 C 4 23.225, 3.775 23, 3.500 23 C 3.225 23, 3 23.225, 3 23.500 M 15 23.500 C 15 23.775, 15.225 24, 15.500 24 C 15.775 24, 16 23.775, 16 23.500 C 16 23.225, 15.775 23, 15.500 23 C 15.225 23, 15 23.225, 15 23.500 M 0 24.500 C 0 24.775, 0.225 25, 0.500 25 C 0.775 25, 1 24.775, 1 24.500 C 1 24.225, 0.775 24, 0.500 24 C 0.225 24, 0 24.225, 0 24.500 M 7 24.500 C 7 24.775, 7.225 25, 7.500 25 C 7.775 25, 8 24.775, 8 24.500 C 8 24.225, 7.775 24, 7.500 24 C 7.225 24, 7 24.225, 7 24.500 M 9 25.500 C 9 25.775, 9.225 26, 9.500 26 C 9.775 26, 10 25.775, 10 25.500 C 10 25.225, 9.775 25, 9.500 25 C 9.225 25, 9 25.225, 9 25.500 M 26 25.500 C 26 25.775, 26.225 26, 26.500 26 C 26.775 26, 27 25.775, 27 25.500 C 27 25.225, 26.775 25, 26.500 25 C 26.225 25, 26 25.225, 26 25.500 M 35.333 25.667 C 35.700 26.033, 36.300 26.033, 36.667 25.667 C 37.033 25.300, 36.733 25, 36 25 C 35.267 25, 34.967 25.300, 35.333 25.667 M 46 25.500 C 46 25.775, 46.225 26, 46.500 26 C 46.775 26, 47 25.775, 47 25.500 C 47 25.225, 46.775 25, 46.500 25 C 46.225 25, 46 25.225, 46 25.500 M 4 28 C 4 28.733, 4.300 29.033, 4.667 28.667 C 5.033 28.300, 5.033 27.700, 4.667 27.333 C 4.300 26.967, 4 27.267, 4 28 M 18 27.500 C 18 27.775, 18.225 28, 18.500 28 C 18.775 28, 19 27.775, 19 27.500 C 19 27.225, 18.775 27, 18.500 27 C 18.225 27, 18 27.225, 18 27.500 M 0 29.500 C 0 29.775, 0.225 30, 0.500 30 C 0.775 30, 1 29.775, 1 29.500 C 1 29.225, 0.775 29, 0.500 29 C 0.225 29, 0 29.225, 0 29.500 M 25 29.500 C 25 29.775, 25.225 30, 25.500 30 C 25.775 30, 26 29.775, 26 29.500 C 26 29.225, 25.775 29, 25.500 29 C 25.225 29, 25 29.225, 25 29.500 M 30 29.500 C 30 29.775, 30.225 30, 30.500 30 C 30.775 30, 31 29.775, 31 29.500 C 31 29.225, 30.775 29, 30.500 29 C 30.225 29, 30 29.225, 30 29.500 M 51 29.500 C 51 29.775, 51.225 30, 51.500 30 C 51.775 30, 52 29.775, 52 29.500 C 52 29.225, 51.775 29, 51.500 29 C 51.225 29, 51 29.225, 51 29.500 M 55 30.500 C 55 30.775, 55.225 31, 55.500 31 C 55.775 31, 56 30.775, 56 30.500 C 56 30.225, 55.775 30, 55.500 30 C 55.225 30, 55 30.225, 55 30.500 M 7 31.500 C 7 31.775, 7.225 32, 7.500 32 C 7.775 32, 8 31.775, 8 31.500 C 8 31.225, 7.775 31, 7.500 31 C 7.225 31, 7 31.225, 7 31.500 M 51 31.500 C 51 31.775, 51.225 32, 51.500 32 C 51.775 32, 52 31.775, 52 31.500 C 52 31.225, 51.775 31, 51.500 31 C 51.225 31, 51 31.225, 51 31.500 M 18 33.500 C 18 33.775, 18.225 34, 18.500 34 C 18.775 34, 19 33.775, 19 33.500 C 19 33.225, 18.775 33, 18.500 33 C 18.225 33, 18 33.225, 18 33.500 M 40 34 C 40 34.733, 40.300 35.033, 40.667 34.667 C 41.033 34.300, 41.033 33.700, 40.667 33.333 C 40.300 32.967, 40 33.267, 40 34 M 30 34.500 C 30 34.775, 30.225 35, 30.500 35 C 30.775 35, 31 34.775, 31 34.500 C 31 34.225, 30.775 34, 30.500 34 C 30.225 34, 30 34.225, 30 34.500 M 1 36.500 C 1 36.775, 1.225 37, 1.500 37 C 1.775 37, 2 36.775, 2 36.500 C 2 36.225, 1.775 36, 1.500 36 C 1.225 36, 1 36.225, 1 36.500 M 4 37 C 4 37.733, 4.300 38.033, 4.667 37.667 C 5.033 37.300, 5.033 36.700, 4.667 36.333 C 4.300 35.967, 4 36.267, 4 37 M 18 36.500 C 18 36.775, 18.225 37, 18.500 37 C 18.775 37, 19 36.775, 19 36.500 C 19 36.225, 18.775 36, 18.500 36 C 18.225 36, 18 36.225, 18 36.500 M 30 36.500 C 30 36.775, 30.225 37, 30.500 37 C 30.775 37, 31 36.775, 31 36.500 C 31 36.225, 30.775 36, 30.500 36 C 30.225 36, 30 36.225, 30 36.500 M 6 37.500 C 6 37.775, 6.225 38, 6.500 38 C 6.775 38, 7 37.775, 7 37.500 C 7 37.225, 6.775 37, 6.500 37 C 6.225 37, 6 37.225, 6 37.500 M 9 37.500 C 9 37.775, 9.225 38, 9.500 38 C 9.775 38, 10 37.775, 10 37.500 C 10 37.225, 9.775 37, 9.500 37 C 9.225 37, 9 37.225, 9 37.500 M 49 37.500 C 49 37.775, 49.225 38, 49.500 38 C 49.775 38, 50 37.775, 50 37.500 C 50 37.225, 49.775 37, 49.500 37 C 49.225 37, 49 37.225, 49 37.500 M 12 38.500 C 12 38.775, 12.225 39, 12.500 39 C 12.775 39, 13 38.775, 13 38.500 C 13 38.225, 12.775 38, 12.500 38 C 12.225 38, 12 38.225, 12 38.500 M 43 39 C 43 39.733, 43.300 40.033, 43.667 39.667 C 44.033 39.300, 44.033 38.700, 43.667 38.333 C 43.300 37.967, 43 38.267, 43 39 M 10 39.500 C 10 39.775, 10.225 40, 10.500 40 C 10.775 40, 11 39.775, 11 39.500 C 11 39.225, 10.775 39, 10.500 39 C 10.225 39, 10 39.225, 10 39.500 M 45 39.500 C 45 39.775, 45.225 40, 45.500 40 C 45.775 40, 46 39.775, 46 39.500 C 46 39.225, 45.775 39, 45.500 39 C 45.225 39, 45 39.225, 45 39.500 M 53 39.500 C 53 39.775, 53.225 40, 53.500 40 C 53.775 40, 54 39.775, 54 39.500 C 54 39.225, 53.775 39, 53.500 39 C 53.225 39, 53 39.225, 53 39.500 M 3 40.500 C 3 40.775, 3.225 41, 3.500 41 C 3.775 41, 4 40.775, 4 40.500 C 4 40.225, 3.775 40, 3.500 40 C 3.225 40, 3 40.225, 3 40.500 M 14.333 40.667 C 14.700 41.033, 15.300 41.033, 15.667 40.667 C 16.033 40.300, 15.733 40, 15 40 C 14.267 40, 13.967 40.300, 14.333 40.667 M 19.813 40.683 C 20.534 40.972, 21.397 40.936, 21.729 40.604 C 22.061 40.272, 21.471 40.036, 20.417 40.079 C 19.252 40.127, 19.015 40.364, 19.813 40.683 M 27.813 40.683 C 28.534 40.972, 29.397 40.936, 29.729 40.604 C 30.061 40.272, 29.471 40.036, 28.417 40.079 C 27.252 40.127, 27.015 40.364, 27.813 40.683 M 33.750 40.662 C 34.438 40.940, 35.563 40.940, 36.250 40.662 C 36.938 40.385, 36.375 40.158, 35 40.158 C 33.625 40.158, 33.063 40.385, 33.750 40.662 M 40 41 C 40 41.733, 40.300 42.033, 40.667 41.667 C 41.033 41.300, 41.033 40.700, 40.667 40.333 C 40.300 39.967, 40 40.267, 40 41 M 47 41.500 C 47 41.775, 47.225 42, 47.500 42 C 47.775 42, 48 41.775, 48 41.500 C 48 41.225, 47.775 41, 47.500 41 C 47.225 41, 47 41.225, 47 41.500 M 9 42.500 C 9 42.775, 9.225 43, 9.500 43 C 9.775 43, 10 42.775, 10 42.500 C 10 42.225, 9.775 42, 9.500 42 C 9.225 42, 9 42.225, 9 42.500 M 18 42.500 C 18 42.775, 18.225 43, 18.500 43 C 18.775 43, 19 42.775, 19 42.500 C 19 42.225, 18.775 42, 18.500 42 C 18.225 42, 18 42.225, 18 42.500 M 25 42.500 C 25 42.775, 25.225 43, 25.500 43 C 25.775 43, 26 42.775, 26 42.500 C 26 42.225, 25.775 42, 25.500 42 C 25.225 42, 25 42.225, 25 42.500 M 39 43.500 C 39 43.775, 39.225 44, 39.500 44 C 39.775 44, 40 43.775, 40 43.500 C 40 43.225, 39.775 43, 39.500 43 C 39.225 43, 39 43.225, 39 43.500 M 18 46.500 C 18 46.775, 18.225 47, 18.500 47 C 18.775 47, 19 46.775, 19 46.500 C 19 46.225, 18.775 46, 18.500 46 C 18.225 46, 18 46.225, 18 46.500 M 35 47.500 C 35 47.775, 35.225 48, 35.500 48 C 35.775 48, 36 47.775, 36 47.500 C 36 47.225, 35.775 47, 35.500 47 C 35.225 47, 35 47.225, 35 47.500 M 13 48.500 C 13 48.775, 13.225 49, 13.500 49 C 13.775 49, 14 48.775, 14 48.500 C 14 48.225, 13.775 48, 13.500 48 C 13.225 48, 13 48.225, 13 48.500 M 9 49.500 C 9 49.775, 9.225 50, 9.500 50 C 9.775 50, 10 49.775, 10 49.500 C 10 49.225, 9.775 49, 9.500 49 C 9.225 49, 9 49.225, 9 49.500 M 16 50.500 C 16 50.775, 16.225 51, 16.500 51 C 16.775 51, 17 50.775, 17 50.500 C 17 50.225, 16.775 50, 16.500 50 C 16.225 50, 16 50.225, 16 50.500 M 22 50.500 C 22 50.775, 22.225 51, 22.500 51 C 22.775 51, 23 50.775, 23 50.500 C 23 50.225, 22.775 50, 22.500 50 C 22.225 50, 22 50.225, 22 50.500 M 35 50.500 C 35 50.775, 35.225 51, 35.500 51 C 35.775 51, 36 50.775, 36 50.500 C 36 50.225, 35.775 50, 35.500 50 C 35.225 50, 35 50.225, 35 50.500 M 24 51.500 C 24 51.775, 24.225 52, 24.500 52 C 24.775 52, 25 51.775, 25 51.500 C 25 51.225, 24.775 51, 24.500 51 C 24.225 51, 24 51.225, 24 51.500 M 29.813 51.683 C 30.534 51.972, 31.397 51.936, 31.729 51.604 C 32.061 51.272, 31.471 51.036, 30.417 51.079 C 29.252 51.127, 29.015 51.364, 29.813 51.683 M 22 52.500 C 22 52.775, 22.225 53, 22.500 53 C 22.775 53, 23 52.775, 23 52.500 C 23 52.225, 22.775 52, 22.500 52 C 22.225 52, 22 52.225, 22 52.500 M 34 52.500 C 34 52.775, 34.225 53, 34.500 53 C 34.775 53, 35 52.775, 35 52.500 C 35 52.225, 34.775 52, 34.500 52 C 34.225 52, 34 52.225, 34 52.500 M 40 52.500 C 40 52.775, 40.225 53, 40.500 53 C 40.775 53, 41 52.775, 41 52.500 C 41 52.225, 40.775 52, 40.500 52 C 40.225 52, 40 52.225, 40 52.500 M 46 52.500 C 46 52.775, 46.225 53, 46.500 53 C 46.775 53, 47 52.775, 47 52.500 C 47 52.225, 46.775 52, 46.500 52 C 46.225 52, 46 52.225, 46 52.500 M 19 54.500 C 19 54.775, 19.225 55, 19.500 55 C 19.775 55, 20 54.775, 20 54.500 C 20 54.225, 19.775 54, 19.500 54 C 19.225 54, 19 54.225, 19 54.500 M 21 54.500 C 21 54.775, 21.225 55, 21.500 55 C 21.775 55, 22 54.775, 22 54.500 C 22 54.225, 21.775 54, 21.500 54 C 21.225 54, 21 54.225, 21 54.500 M 23 55.500 C 23 55.775, 23.225 56, 23.500 56 C 23.775 56, 24 55.775, 24 55.500 C 24 55.225, 23.775 55, 23.500 55 C 23.225 55, 23 55.225, 23 55.500" stroke="none" fill="#046cfc" fill-rule="evenodd"/><path d="M 17.595 2.536 C 13.052 4.422, 11.372 4.723, 10.309 3.841 C 8.176 2.071, 2.709 7.588, 4.073 10.136 C 4.800 11.496, 4.484 13.228, 2.866 16.740 C -0.173 23.334, -0.172 32.807, 2.868 39.326 C 4.684 43.219, 4.881 44.438, 3.888 45.635 C 2.115 47.771, 8.159 53.943, 10.291 52.173 C 11.376 51.273, 12.367 51.335, 14.600 52.443 C 17.541 53.903, 20.893 54.807, 26.723 55.712 C 30.632 56.319, 40 54.218, 40 52.734 C 40 52.147, 40.296 51.963, 40.658 52.325 C 41.020 52.687, 41.891 52.505, 42.594 51.922 C 43.476 51.190, 44.467 51.180, 45.790 51.888 C 47.350 52.722, 48.231 52.369, 50.506 49.993 C 52.690 47.714, 53.054 46.770, 52.165 45.699 C 51.292 44.647, 51.523 43.292, 53.152 39.921 C 56.974 32.011, 56.589 23.950, 51.902 13.678 C 50.821 11.310, 50.846 10.712, 52.057 9.958 C 53.230 9.227, 52.902 8.459, 50.309 5.858 C 47.684 3.224, 46.855 2.875, 45.635 3.888 C 44.441 4.879, 43.375 4.722, 40.156 3.079 C 37.939 1.949, 33.340 0.827, 29.829 0.562 C 24.659 0.172, 22.419 0.533, 17.595 2.536 M 19.707 4.612 C 14.139 6.324, 8.054 11.915, 5.096 18.038 C 3.549 21.238, 3.166 23.794, 3.387 29.414 C 3.633 35.675, 4.107 37.295, 6.863 41.302 C 12.522 49.527, 19.001 53, 28.682 53 C 41.768 53, 52.922 41.647, 52.978 28.270 C 53.006 21.574, 50.637 15.481, 46.177 10.777 C 39.222 3.443, 30.285 1.361, 19.707 4.612 M 21.180 5.728 C 5.488 10.350, -0.315 29.211, 9.796 42.734 C 14.212 48.642, 20.542 51.430, 29 51.195 C 42.016 50.832, 51.177 41.343, 51.394 28 C 51.480 22.755, 51.030 20.728, 49.066 17.500 C 45.455 11.567, 40.121 7.144, 34.568 5.479 C 28.662 3.708, 27.998 3.720, 21.180 5.728 M 47 6.941 C 47 7.459, 47.445 8.157, 47.989 8.493 C 48.555 8.843, 48.723 8.442, 48.382 7.552 C 47.717 5.820, 47 5.503, 47 6.941 M 7.114 7.929 C 6.255 8.461, 6.152 8.976, 6.824 9.391 C 7.395 9.744, 8.163 9.545, 8.531 8.950 C 9.449 7.464, 8.719 6.938, 7.114 7.929 M 19.488 9.294 C 1.991 17.650, 3.951 42.807, 22.504 48.001 C 34.952 51.486, 47.248 42.853, 48.744 29.577 C 49.354 24.171, 45.906 15.891, 41.617 12.462 C 36.006 7.976, 36.459 8.159, 29.031 7.377 C 25.605 7.016, 23.278 7.484, 19.488 9.294 M 23 12.417 C 23 15.235, 22.605 16, 21.153 16 C 20.137 16, 18.812 14.988, 18.208 13.750 L 17.110 11.500 16.439 13.750 C 16.032 15.112, 14.975 16, 13.761 16 C 12.098 16, 11.966 16.255, 12.991 17.489 C 13.671 18.308, 14.626 18.731, 15.113 18.430 C 15.601 18.129, 16 19.168, 16 20.740 C 16 23.437, 15.795 23.574, 12.375 23.175 C 9.623 22.854, 8.859 23.083, 9.202 24.126 C 9.451 24.882, 11.082 25.641, 12.827 25.813 C 15.150 26.043, 16 26.628, 16 28 C 16 29.372, 15.150 29.957, 12.827 30.187 C 8.243 30.639, 7.898 33, 12.417 33 C 15.525 33, 16 33.316, 16 35.383 C 16 36.968, 15.246 38.016, 13.750 38.510 L 11.500 39.254 13.750 39.697 C 15.153 39.973, 16 40.865, 16 42.070 C 16 44.601, 17.690 44.554, 18.500 42 C 18.849 40.900, 20.004 40, 21.067 40 C 22.609 40, 23 40.707, 23 43.500 C 23 46.015, 23.442 47, 24.572 47 C 25.621 47, 26.047 46.252, 25.852 44.750 C 25.500 42.026, 26.628 40, 28.496 40 C 29.311 40, 30.001 41.296, 30.187 43.173 C 30.639 47.757, 33 48.102, 33 43.583 C 33 40.648, 33.367 40, 35.032 40 C 36.201 40, 37.454 40.956, 37.981 42.250 L 38.898 44.500 39.563 42.261 C 39.928 41.030, 40.595 40.250, 41.045 40.528 C 41.494 40.805, 42.181 40.516, 42.571 39.885 C 42.962 39.253, 42.543 38.324, 41.640 37.819 C 40.738 37.314, 40 36.023, 40 34.950 C 40 33.388, 40.696 33, 43.500 33 C 48.141 33, 48.356 30.257, 43.750 29.813 C 39.588 29.412, 39.352 26.720, 43.418 26.010 C 47.812 25.242, 47.935 23, 43.583 23 C 39.407 23, 38.921 21.368, 42.250 18.518 L 44.500 16.591 42.191 16.045 C 40.921 15.745, 39.909 15.162, 39.941 14.750 C 40.111 12.589, 39.910 12, 39 12 C 38.450 12, 38 12.900, 38 14 C 38 15.467, 37.333 16, 35.500 16 C 33.298 16, 33 15.572, 33 12.417 C 33 9.981, 32.600 8.975, 31.750 9.275 C 31.028 9.531, 30.607 11.045, 30.754 12.859 C 30.987 15.740, 30.759 16, 28.001 16 C 25.239 16, 25.014 15.742, 25.247 12.842 C 25.394 11.009, 24.975 9.506, 24.250 9.259 C 23.403 8.971, 23 9.990, 23 12.417 M 18.423 19.124 C 17.556 20.527, 19.268 23, 21.107 23 C 22.412 23, 23 22.290, 23 20.714 C 23 19.068, 22.420 18.429, 20.927 18.429 C 19.786 18.429, 18.660 18.742, 18.423 19.124 M 27.500 18.913 C 26.400 19.236, 25.368 20.288, 25.206 21.250 C 24.981 22.592, 25.609 23, 27.899 23 C 30.410 23, 30.820 22.660, 30.474 20.865 C 29.963 18.213, 29.939 18.197, 27.500 18.913 M 33 20.750 C 33 22.483, 33.574 23, 35.500 23 C 37.426 23, 38 22.483, 38 20.750 C 38 19.017, 37.426 18.500, 35.500 18.500 C 33.574 18.500, 33 19.017, 33 20.750 M 25.733 27.618 C 25.342 29.663, 25.669 30, 28.045 30 C 30.276 30, 30.716 29.630, 30.314 28.092 C 29.530 25.097, 26.279 24.760, 25.733 27.618 M 34.250 25.667 C 33.563 25.942, 33 27.029, 33 28.083 C 33 29.475, 33.704 30, 35.570 30 C 37.638 30, 38.077 29.577, 37.820 27.828 C 37.483 25.539, 36.324 24.837, 34.250 25.667 M 18.736 26.598 C 17.616 27.717, 19.208 30, 21.107 30 C 22.333 30, 23 29.296, 23 28 C 23 26.093, 20.170 25.163, 18.736 26.598 M 18.495 35.250 C 18.601 36.729, 19.401 37.610, 20.828 37.820 C 22.577 38.077, 23 37.638, 23 35.570 C 23 33.544, 22.506 33, 20.667 33 C 18.867 33, 18.371 33.514, 18.495 35.250 M 26 35.500 C 26 37.665, 26.404 38.082, 28.250 37.820 C 29.727 37.610, 30.500 36.813, 30.500 35.500 C 30.500 34.187, 29.727 33.390, 28.250 33.180 C 26.404 32.918, 26 33.335, 26 35.500 M 33 35.500 C 33 37.500, 33.500 38, 35.500 38 C 37.500 38, 38 37.500, 38 35.500 C 38 33.500, 37.500 33, 35.500 33 C 33.500 33, 33 33.500, 33 35.500 M 7 47.378 C 7 47.585, 7.787 48.373, 8.750 49.128 C 10.336 50.371, 10.371 50.336, 9.128 48.750 C 7.821 47.084, 7 46.555, 7 47.378 M 47.405 48.155 C 46.962 48.870, 47.130 49.038, 47.845 48.595 C 48.998 47.883, 49.393 47, 48.559 47 C 48.316 47, 47.797 47.520, 47.405 48.155" stroke="none" fill="#0474fc" fill-rule="evenodd"/></svg>