<svg width="56" height="56" viewBox="0 0 56 56" fill="none" xmlns="http://www.w3.org/2000/svg">
<path d="M37.9409 56C38.0715 56.0001 38.2008 55.9745 38.3215 55.9245C38.4422 55.8746 38.5519 55.8014 38.6442 55.709C38.7366 55.6167 38.8098 55.507 38.8597 55.3863C38.9097 55.2657 38.9353 55.1363 38.9352 55.0057V0.994003C38.9353 0.863424 38.9096 0.734111 38.8596 0.613461C38.8097 0.492811 38.7365 0.383191 38.6441 0.29087C38.5518 0.19855 38.4421 0.125341 38.3215 0.0754311C38.2008 0.025521 38.0715 -0.000111233 37.9409 6.49205e-07C37.8103 -7.39325e-05 37.6811 0.0255858 37.5604 0.0755127C37.4398 0.12544 37.3302 0.198654 37.2379 0.290971C37.1455 0.383287 37.0723 0.492895 37.0224 0.613527C36.9725 0.734158 36.9468 0.863448 36.9469 0.994003V6.1294H19.0534V0.994003C19.0535 0.863448 19.0279 0.734158 18.9779 0.613527C18.928 0.492895 18.8548 0.383287 18.7625 0.290971C18.6701 0.198654 18.5605 0.12544 18.4399 0.0755127C18.3193 0.0255858 18.19 -7.39325e-05 18.0594 6.49205e-07C17.9289 -0.000148666 17.7995 0.0254601 17.6789 0.0753604C17.5582 0.125261 17.4486 0.198473 17.3562 0.290804C17.2639 0.383136 17.1907 0.492773 17.1408 0.613438C17.0909 0.734104 17.0653 0.863427 17.0654 0.994003V55.0054C17.0652 55.136 17.0908 55.2654 17.1407 55.3861C17.1906 55.5068 17.2638 55.6164 17.3561 55.7088C17.4485 55.8012 17.5581 55.8744 17.6788 55.9243C17.7995 55.9742 17.9288 55.9999 18.0594 55.9997C18.19 55.9998 18.3193 55.9741 18.44 55.9242C18.5606 55.8742 18.6702 55.801 18.7626 55.7086C18.8549 55.6163 18.9281 55.5067 18.978 55.386C19.0279 55.2653 19.0535 55.136 19.0534 55.0054V48.8752H36.9472V55.0054C36.947 55.136 36.9726 55.2653 37.0225 55.386C37.0724 55.5067 37.1456 55.6164 37.2378 55.7087C37.3301 55.8011 37.4397 55.8744 37.5604 55.9244C37.681 55.9743 37.8103 56 37.9409 56ZM36.9469 27.0054H19.0534V18.0586H36.9472L36.9469 27.0054ZM19.0534 28.9937H36.9472V36.9463H19.0534V28.9937ZM36.9469 8.11769V16.0703H19.0534V8.11769H36.9469ZM19.0534 46.8872V38.9346H36.9472V46.8872H19.0534Z" fill="white"/>
</svg>
