<svg width="22" height="22" viewBox="0 0 22 22" fill="none" xmlns="http://www.w3.org/2000/svg">
<path d="M18.974 16.064C18.974 16.352 18.91 16.648 18.774 16.936C18.638 17.224 18.462 17.4959 18.23 17.752C17.838 18.184 17.406 18.496 16.918 18.6959C16.438 18.896 15.918 19 15.358 19C14.542 19 13.67 18.808 12.75 18.416C11.83 18.0239 10.91 17.4959 9.998 16.832C9.07804 16.16 8.20604 15.416 7.37404 14.592C6.55004 13.76 5.80604 12.888 5.14205 11.976C4.48604 11.064 3.95805 10.152 3.57405 9.24799C3.19005 8.33599 2.99805 7.46399 2.99805 6.632C2.99805 6.088 3.09405 5.568 3.28605 5.088C3.47805 4.6 3.78205 4.152 4.20605 3.752C4.71805 3.248 5.27804 3 5.87005 3C6.09404 3 6.31804 3.048 6.51805 3.144C6.72604 3.24 6.91004 3.384 7.05404 3.592L8.91004 6.208C9.05404 6.40799 9.15804 6.592 9.23004 6.76799C9.302 6.93599 9.34205 7.10399 9.34205 7.25599C9.34205 7.44799 9.28603 7.63999 9.17404 7.82399C9.07003 8.00799 8.91804 8.19999 8.72604 8.39199L8.11804 9.02399C8.03004 9.11199 7.99004 9.21599 7.99004 9.34399C7.99004 9.40796 7.99804 9.46399 8.01404 9.52796C8.03804 9.59202 8.06204 9.64002 8.07804 9.68802C8.22204 9.95202 8.47004 10.296 8.82204 10.712C9.18204 11.128 9.566 11.552 9.98202 11.976C10.414 12.4 10.8301 12.792 11.254 13.152C11.67 13.504 12.014 13.744 12.286 13.888C12.326 13.904 12.374 13.928 12.43 13.952C12.494 13.976 12.558 13.984 12.63 13.984C12.766 13.984 12.87 13.936 12.958 13.848L13.566 13.248C13.766 13.048 13.958 12.896 14.142 12.8C14.326 12.688 14.51 12.632 14.71 12.632C14.862 12.632 15.022 12.664 15.198 12.736C15.374 12.808 15.558 12.912 15.758 13.048L18.406 14.9279C18.614 15.0719 18.758 15.2399 18.846 15.44C18.926 15.64 18.974 15.8399 18.974 16.064Z" stroke="#010513" stroke-width="1.59999" stroke-miterlimit="10"/>
</svg>
