<svg width="24" height="24" viewBox="0 0 24 24" fill="none" xmlns="http://www.w3.org/2000/svg">
<path d="M20.1238 3.18755C19.8638 3.19902 19.6215 3.27477 19.4082 3.36099C19.2084 3.44136 18.445 3.76878 17.2426 4.28442C16.0391 4.80052 14.4456 5.48467 12.7457 6.21567C9.34596 7.67768 5.52376 9.32338 3.56602 10.1657C3.4924 10.1973 3.23553 10.2794 2.96289 10.4922C2.69025 10.7051 2.40039 11.1461 2.40039 11.6375C2.40039 12.0338 2.58924 12.4275 2.82695 12.6625C3.06466 12.8976 3.31619 13.0137 3.53164 13.1016C4.31337 13.4206 6.73787 14.4127 7.1957 14.6C7.35683 15.0936 8.23438 17.7781 8.43789 18.436C8.57205 18.8701 8.69975 19.1421 8.86602 19.3579C8.94915 19.4658 9.04578 19.5603 9.16289 19.6344C9.2097 19.664 9.26102 19.6869 9.31289 19.7079L9.31602 19.7094C9.32797 19.7142 9.33827 19.7224 9.35039 19.7266C9.37326 19.7346 9.38855 19.7356 9.41914 19.7422C9.541 19.7816 9.66403 19.8063 9.77383 19.8063C10.242 19.8063 10.5285 19.5485 10.5285 19.5485L10.5457 19.536L12.9535 17.4532L15.8738 20.2157C15.9149 20.2738 16.2984 20.8 17.1441 20.8C17.6463 20.8 18.0446 20.5481 18.3004 20.2797C18.5561 20.0114 18.7155 19.7295 18.7832 19.375V19.3735C18.8466 19.0386 21.5379 5.22192 21.5379 5.22192L21.5332 5.24067C21.612 4.88106 21.6326 4.54616 21.5457 4.21567C21.4588 3.88519 21.2297 3.56876 20.9457 3.39849C20.6617 3.22825 20.3839 3.17608 20.1238 3.18755ZM19.9738 4.85942C19.97 4.88277 19.9767 4.87103 19.9707 4.89849L19.9691 4.90786L19.9676 4.91724C19.9676 4.91724 17.3096 18.5571 17.2113 19.0766C17.2185 19.0374 17.1856 19.1154 17.152 19.1625C17.1043 19.1297 17.0066 19.0875 17.0066 19.0875L16.991 19.0704L13.002 15.2969L10.1816 17.7344L11.0207 14.375C11.0207 14.375 16.2656 8.94574 16.5816 8.62974C16.836 8.37694 16.8895 8.28881 16.8895 8.20161C16.8895 8.08481 16.8286 8.00005 16.6926 8.00005C16.5702 8.00005 16.4056 8.11905 16.3176 8.17505C15.1711 8.90588 10.1378 11.8394 7.88164 13.1516C7.52309 13.0049 5.03212 11.9852 4.18789 11.6407C4.19428 11.6379 4.19218 11.6389 4.19883 11.636C6.15708 10.7935 9.97769 9.14778 13.377 7.68599C15.0766 6.95509 16.6713 6.27042 17.8738 5.75474C19.0578 5.247 19.8805 4.89756 19.9738 4.85942Z" fill="white"/>
</svg>
