<svg width="24" height="24" viewBox="0 0 24 24" fill="none" xmlns="http://www.w3.org/2000/svg">
<path d="M11.7744 3C10.3494 3 6.82466 3.14971 4.94966 4.94971C3.59966 6.22471 3.07495 8.175 2.99995 10.5C2.84995 14.175 3.67436 16.4997 5.02436 17.6997C5.32436 17.9247 6.07495 18.5256 7.49995 18.9756V20.8506C7.49995 20.8506 7.49966 21.6 7.94966 21.75C8.02466 21.75 8.10024 21.8247 8.17524 21.8247C8.62524 21.8247 8.99936 21.2994 9.52436 20.7744C9.97436 20.2494 10.3497 19.875 10.5747 19.5H11.6249H12.2255C13.6505 19.5 17.1752 19.3503 19.0502 17.5503C20.4002 16.2003 20.9252 14.2494 20.9252 11.7744C21.0002 11.3994 20.9999 10.95 20.9999 10.5C20.9249 7.725 20.1005 5.85029 18.9755 4.80029C18.5255 4.42529 16.5749 3 12.3749 3H11.7744ZM11.6249 4.42529H12.1494H12.2255H12.3002C16.2752 4.42529 17.7752 5.70059 17.9252 5.85059C18.8252 6.60059 19.3502 8.25029 19.4252 10.4253V10.7256C19.5002 11.1756 19.4999 11.5494 19.4999 11.7744C19.4249 14.0244 18.9747 15.525 18.0747 16.5C16.4997 17.925 13.2002 18 12.3002 18H11.7744H11.6997H11.6249H10.8749L9.67524 19.3506L8.92524 20.1753L8.77436 20.3994C8.62436 20.5494 8.39995 20.8503 8.24995 20.9253V20.7744V17.5503C6.74995 17.1753 6.14995 16.65 5.99995 16.5C4.94995 15.6 4.34995 13.425 4.49995 10.5V9.75C4.64995 7.95 5.10054 6.75029 5.85054 5.92529C7.42554 4.50029 10.7249 4.42529 11.6249 4.42529ZM11.5502 6.07471C11.1752 6.07471 11.1752 6.60059 11.5502 6.60059C14.3252 6.60059 16.7255 8.475 16.7255 12C16.7255 12.375 17.2499 12.375 17.2499 12C17.2499 8.175 14.7002 5.99971 11.5502 6.07471ZM8.57807 6.76904C8.4187 6.75029 8.25054 6.78691 8.10054 6.89941C7.35054 7.27441 6.59966 8.02559 6.82466 8.85059C6.82466 8.85059 6.97524 9.52471 7.80024 10.9497C8.25024 11.6247 8.62495 12.2253 8.99995 12.6753C9.37495 13.2003 9.97466 13.8 10.5747 14.25C11.7747 15.225 13.6505 16.2003 14.4755 16.4253C15.2255 16.6503 16.0502 15.8994 16.4252 15.1494C16.5752 14.8494 16.4997 14.475 16.1997 14.25C15.7497 13.8 15.0005 13.2756 14.4755 12.9756C14.1005 12.7506 13.6499 12.9 13.4999 13.125L13.1249 13.5747C12.9749 13.7997 12.6005 13.8003 12.6005 13.8003C10.1255 13.1253 9.44966 10.5747 9.44966 10.5747C9.44966 10.5747 9.45024 10.2753 9.67524 10.0503L10.1249 9.67529C10.3499 9.52529 10.4994 9.07471 10.2744 8.69971C10.1244 8.47471 9.90024 8.02529 9.67524 7.80029C9.45024 7.50029 8.99995 6.97559 8.99995 6.97559C8.88745 6.86309 8.73745 6.78779 8.57807 6.76904ZM12.0747 7.57471C11.6997 7.49971 11.6249 8.10059 11.9999 8.10059C14.0999 8.25059 15.3005 9.67559 15.2255 11.4756C15.1505 11.8506 15.7499 11.8506 15.7499 11.4756C15.8249 9.37559 14.4747 7.64971 12.0747 7.57471ZM12.3002 9C11.9252 8.925 11.9252 9.52441 12.3002 9.52441C13.2002 9.52441 13.6494 10.0497 13.6494 10.9497C13.7244 11.3247 14.2499 11.3247 14.2499 10.9497C14.1749 9.74971 13.5002 9 12.3002 9Z" fill="white"/>
</svg>
