<svg width="169" height="44" viewBox="0 0 169 44" fill="none" xmlns="http://www.w3.org/2000/svg">
<path fill-rule="evenodd" clip-rule="evenodd" d="M79.9831 0.866886H60.5357V31.9827H65.8395V5.81714H79.9831V0.866886ZM103.32 5.46355V0.866886H82.8118V31.9827H103.32V27.0325H88.1157V18.5464H102.259V13.5961H88.1157V5.46355H103.32ZM121.703 0.297607C112.581 0.297607 105.548 7.2421 105.548 16.4071C105.548 25.5722 112.581 32.5167 121.703 32.5167C130.826 32.5167 137.813 25.5722 137.859 16.4071C137.813 7.23857 130.826 0.297607 121.703 0.297607ZM121.703 5.10289C127.979 5.10289 132.739 9.90817 132.739 16.4071C132.739 22.9061 127.976 27.7114 121.703 27.7114C115.43 27.7114 110.622 22.9061 110.622 16.4071C110.622 9.90817 115.384 5.10289 121.703 5.10289ZM162.016 0.866886V13.5961H146.104V0.866886H141.154V31.9827H146.104V18.1928H162.016V31.9827H166.966V0.866886H162.016Z" fill="white"/>
<path fill-rule="evenodd" clip-rule="evenodd" d="M63.718 37.9937H60.5357V43.2976H61.2429V38.7009H63.718V37.9937ZM68.937 37.9937H66.9003V43.2976H67.6075V41.5296H68.937C70.1038 41.5296 70.8146 40.7977 70.8146 39.7511C70.8146 38.7044 70.1038 37.9937 68.937 37.9937ZM68.8238 40.4689H67.6075V38.7009H68.8238C69.4815 38.7009 69.7891 39.0722 69.7891 39.5813C69.7891 40.0905 69.4815 40.4689 68.8238 40.4689ZM78.0525 37.9937H77.0978L75.7188 40.4936L74.3257 37.9937H73.3639L75.2415 41.42L74.2196 43.2976H75.1743L78.0525 37.9937ZM85.287 37.9937H81.0439V43.2976H82.1047V38.7009H84.5798V43.2976H85.287V37.9937ZM93.0659 37.9937H88.8229V43.2976H89.53V38.7009H92.0052V43.2976H93.0659V37.9937ZM100.276 43.2976H101.241L99.1866 37.9937H98.094L96.0396 43.2976H97.0049L97.5247 41.5296H99.7523L100.272 43.0359V43.2976H100.276ZM97.8288 40.8224L98.642 38.6762L99.4553 40.8224H97.8288ZM112.672 43.2976L110.356 40.4052L112.57 37.9937H111.53L109.335 40.2496V37.9937H108.627V43.2976H109.335V40.5855L111.626 43.2976H112.672ZM117.732 37.8169C116.23 37.8169 115.073 38.959 115.073 40.4689C115.073 41.9787 116.23 43.1208 117.732 43.1208C119.235 43.1208 120.384 41.9787 120.391 40.4689C120.384 38.959 119.235 37.8169 117.732 37.8169ZM117.732 38.609C118.765 38.609 119.55 39.401 119.55 40.4689C119.55 41.5367 118.765 42.3287 117.732 42.3287C116.7 42.3287 115.908 41.5367 115.908 40.4689C115.908 39.401 116.693 38.609 117.732 38.609ZM127.442 37.9937L125.953 40.1294L124.465 37.9937H123.478V42.944H124.539V38.5665L126.088 41.176H126.165L127.721 38.5665V42.944H128.428V37.9937H127.442ZM136.207 37.9937H131.964V43.2976H132.671V38.7009H135.147V43.2976H136.207V37.9937ZM143.421 43.2976H144.386L142.332 37.9937H141.239L139.185 43.2976H140.15L140.67 41.5296H142.897L143.417 43.0359V43.2976H143.421ZM140.974 40.8224L141.787 38.6762L142.6 40.8224H140.974ZM151.058 37.9937V40.1153H148.229V37.9937H147.522V43.2976H148.229V40.8224H151.058V43.2976H151.765V37.9937H151.058ZM158.551 37.9937L155.934 42.0848L156.008 40.2143V37.9937H154.948V43.2976H155.941L158.565 39.1995L158.483 41.077V43.2976H159.544V37.9937H158.551ZM165.028 37.1769C165.686 37.1769 166.262 36.7456 166.262 36.0348V35.8722H165.555V36.0101C165.555 36.2894 165.336 36.5263 165.057 36.5369C164.717 36.5475 164.495 36.3425 164.495 36.0101V35.8722H163.787V36.0348C163.787 36.7456 164.364 37.1769 165.028 37.1769ZM165.976 37.9937L163.359 42.0848L163.434 40.2143V37.9937H162.727V43.2976H163.72L166.344 39.1995L166.262 41.077V43.2976H166.97V37.9937H165.976Z" fill="white"/>
<path d="M23.4336 21.8453C29.3838 21.8453 34.2075 17.0217 34.2075 11.0715C34.2075 5.12123 29.3838 0.297607 23.4336 0.297607C17.4834 0.297607 12.6597 5.12123 12.6597 11.0715C12.6597 17.0217 17.4834 21.8453 23.4336 21.8453Z" fill="white"/>
<path d="M11.7182 43.1105C17.6626 42.8468 22.2677 37.8142 22.004 31.8698C21.7403 25.9254 16.7077 21.3202 10.7633 21.5839C4.81889 21.8476 0.213768 26.8803 0.477464 32.8247C0.74116 38.7691 5.77381 43.3742 11.7182 43.1105Z" fill="white"/>
<path d="M46.3852 32.945C46.7152 27.0039 42.1666 21.9201 36.2255 21.5901C30.2845 21.26 25.2007 25.8086 24.8706 31.7497C24.5405 37.6908 29.0891 42.7745 35.0302 43.1046C40.9713 43.4347 46.0551 38.8861 46.3852 32.945Z" fill="white"/>
</svg>
