<?xml version="1.0" encoding="utf-8"?><svg viewBox="0 0 512 512" xmlns="http://www.w3.org/2000/svg" xmlns:xlink="http://www.w3.org/1999/xlink"><style>:root>svg{display:none}:root>svg:target{display:block}</style><svg viewBox="0 0 16 16" id="arr-l" xmlns="http://www.w3.org/2000/svg"><path d="M.293 8.707a1 1 0 0 1 0-1.414L6.657.929A1 1 0 0 1 8.07 2.343L2.414 8l5.657 5.657a1 1 0 1 1-1.414 1.414L.293 8.707ZM16 9H1V7h15v2Z"/></svg><svg viewBox="0 0 16 16" id="arr-r" xmlns="http://www.w3.org/2000/svg"><path d="M15.707 8.707a1 1 0 0 0 0-1.414L9.343.929A1 1 0 0 0 7.93 2.343L13.586 8l-5.657 5.657a1 1 0 1 0 1.414 1.414l6.364-6.364ZM0 9h15V7H0v2Z"/></svg><svg viewBox="0 0 55 56" id="conf-1" xmlns="http://www.w3.org/2000/svg"><path d="M48.898 10.094a3.273 3.273 0 0 0 2.666-3.796 3.276 3.276 0 0 0-3.243-2.714H8.746a3.293 3.293 0 0 0-3.29 3.279c-.013 1.813 1.464 3.279 3.278 3.29l2.114 35.576.108 1.826a5.436 5.436 0 0 0 5.429 5.116h24.874a5.462 5.462 0 0 0 5.429-5.116l.108-1.826 2.102-35.636Zm-6.186 31.191 2.738 2.739.337-5.778-3.075 3.039Zm-5.164-3.159-3.28 3.231 3.16 3.123 3.242-3.207-3.122-3.147Zm-11.459 3.231 3.063 3.027 3.063-3.027-3.063-3.015-3.063 3.015Zm-8.743-.372 3.53 3.495 3.16-3.123-3.532-3.483-3.158 3.11Zm-5.537-3.435.384 6.498 3.099-3.063-3.483-3.435Zm20.97-13.812-3.651-3.616-3.771 3.724 3.627 3.639 3.795-3.747ZM20.504 18.97l3.844 3.855 3.76-3.711-3.868-3.832-3.736 3.688Zm13.476-3.628-3.819 3.772 3.651 3.615 3.772-3.735-3.604-3.652Zm-8.72-1.069 3.88 3.832 3.831-3.796-3.819-3.88-3.891 3.844Zm11.94-4.131h-6.318l3.122 3.158 3.195-3.158Zm-16.107 0 3.147 3.11 3.147-3.11h-6.294Zm2.114 4.12-3.52-3.484-3.77 3.58 3.567 3.59 3.723-3.687Zm-11.482-4.12 3.17 3.194 3.375-3.194h-6.545Zm3.279 12.214 3.447-3.399-3.591-3.615-3.556 3.375 3.7 3.64Zm8.311 1.478-3.843-3.856-3.435 3.4 3.867 3.819 3.411-3.363Zm-7.495 7.398 3.063-3.014-3.88-3.832-3.062 3.027 3.88 3.82Zm7.747 1.598-3.663-3.604-3.063 3.015 3.663 3.603 3.063-3.014Zm.769-7.975-3.4 3.363 3.652 3.603 3.363-3.327-3.615-3.64Zm8.143 8.179-3.507-3.52-3.351 3.316 3.531 3.483 3.327-3.28Zm1.321-8.288-3.807 3.76 3.507 3.519 3.831-3.784-3.53-3.495Zm7.615 7.531-3.05-3.027-3.844 3.796 3.027 3.05 3.867-3.819Zm1.681-7.699-3.71 3.664 3.062 3.026 3.675-3.627-3.027-3.063Zm-8.263-.84 3.531 3.495 3.723-3.675-3.483-3.544-3.771 3.724Zm8.336-8.228-3.544 3.495 3.483 3.532 3.52-3.471-3.46-3.556Zm-8.156-1.177 3.604 3.652 3.555-3.508-3.58-3.675-3.579 3.531Zm11.542-4.191h-6.581l3.218 3.327 3.363-3.327Zm-35.947 7.242 3.243-3.063-3.64-3.639.397 6.702Zm.528 8.792 2.847-2.799-3.207-3.158.36 5.957Zm.54 9.152 3.111-3.087-3.495-3.447.385 6.534Zm4.144-2.066-3.158 3.11 3.65 3.604 3.16-3.111-3.652-3.603Zm8.768.577-3.063 3.026 3.531 3.483 3.063-3.026-3.531-3.483Zm8.9.216-3.315 3.267 3.063 3.026 3.29-3.243-3.038-3.05Zm8.96-.757-3.88 3.82 3.135 3.146 3.891-3.843-3.146-3.123Zm1.02-1.009 2.523 2.498.312-5.308-2.834 2.81Zm.661-8.72 2.39 2.427.3-5.08-2.69 2.654Zm.072-9.067 2.823 2.906.36-6.053-3.183 3.146ZM19.303 44.948l-2.99-2.942-2.99 2.942h5.98Zm8.372 0-2.619-2.57-2.606 2.57h5.225Zm8.179 0-2.618-2.57-2.607 2.57h5.225Zm8.48 0-2.643-2.654-2.702 2.654h5.345ZM8.745 5.025A1.845 1.845 0 0 0 6.91 6.863 1.861 1.861 0 0 0 8.746 8.7h39.575a1.845 1.845 0 0 0 1.838-1.837 1.845 1.845 0 0 0-1.838-1.838H8.746ZM41.26 51.218a3.998 3.998 0 0 0 3.987-3.76l.06-1.068h-32.98l.071 1.069a3.998 3.998 0 0 0 3.988 3.759H41.26Z"/></svg><svg viewBox="0 0 56 56" id="conf-2" xmlns="http://www.w3.org/2000/svg"><path d="M37.94 56a.992.992 0 0 0 .995-.994V.994A.992.992 0 0 0 37.56.076a.993.993 0 0 0-.613.918v5.135H19.053V.994A.992.992 0 0 0 18.06 0a.993.993 0 0 0-.994.994v54.011a.993.993 0 0 0 1.913.381.99.99 0 0 0 .075-.38v-6.13h17.894v6.13a.992.992 0 0 0 .994.994Zm-.993-28.995H19.053V18.06h17.894v8.946Zm-17.894 1.989h17.894v7.952H19.053v-7.952ZM36.947 8.118v7.952H19.053V8.118h17.894Zm-17.894 38.77v-7.953h17.894v7.952H19.053Z"/></svg><svg viewBox="0 0 60 60" id="conf-3" xmlns="http://www.w3.org/2000/svg"><path d="m40.477 34.793 5.273-15.047a5.116 5.116 0 0 0-.422-4.312l-3.433-5.801V1.219C41.895.55 41.344 0 40.665 0c-.68 0-1.22.55-1.22 1.219V8.73h-18.89V1.22a1.218 1.218 0 1 0-2.438 0v8.414l-3.433 5.8a5.12 5.12 0 0 0-.422 4.313l5.273 15.047a5.13 5.13 0 0 0 4.84 3.434h.422c.563 3.527 2.414 6.89 5.613 9.093 1.02.703 2.016.89 2.32 2.274.387 1.804-.913 3.386-2.695 3.633-2.05.351-4.195-1.22-4.441-3.727a2.513 2.513 0 0 0-2.356-2.273 2.531 2.531 0 0 0-2.695 2.355c-.363 5.555 4.184 10.371 9.82 10.406.118 0 .223.012.34.012 5.813 0 10.723-5.05 10.5-11.18-.07-3.047-1.476-6.093-3.797-8.144-.667-.621-1.57-.95-1.91-2.438.047-.035 3.715.164 4.98-3.445Zm-18.645-.809L16.56 18.937a2.705 2.705 0 0 1 .223-2.25l3.257-5.507h19.922l3.258 5.508c.41.68.492 1.5.223 2.25l-5.274 15.046a2.677 2.677 0 0 1-2.531 1.793H24.363a2.677 2.677 0 0 1-2.53-1.793Zm13.922 8.508c1.817 1.617 2.93 3.996 2.977 6.399.175 4.851-3.762 8.824-8.332 8.66-4.36-.024-7.688-3.739-7.43-7.793 0-.035.047-.07.082-.07.047 0 .07.046.082.117.375 3.843 3.832 6.445 7.242 5.86 3.106-.423 5.414-3.33 4.723-6.575-.48-2.262-1.934-2.813-3.328-3.785-2.45-1.676-3.961-4.23-4.512-7.078h5.73c.352 2.437 1.524 3.222 2.766 4.265Z"/><path d="M38.04 23.484c0-4.441-3.61-8.05-8.052-8.05-4.43 0-8.039 3.609-8.039 8.05 0 4.442 3.61 8.051 8.04 8.051 4.44-.012 8.05-3.62 8.05-8.05ZM30 29.074c-3.082 0-5.59-2.508-5.59-5.601 0-3.082 2.508-5.602 5.59-5.602a5.609 5.609 0 0 1 5.602 5.602c-.012 3.093-2.52 5.601-5.602 5.601Z"/></svg><svg viewBox="0 0 389.981 389.981" xml:space="preserve" id="conf-4" xmlns="http://www.w3.org/2000/svg"><path d="M194.99 30.276c-90.824 0-164.714 73.891-164.714 164.715s73.891 164.714 164.714 164.714 164.714-73.891 164.714-164.714c.001-90.824-73.89-164.715-164.714-164.715zm0 314.429c-82.553 0-149.714-67.162-149.714-149.714 0-82.553 67.162-149.715 149.714-149.715 82.553 0 149.714 67.162 149.714 149.715.001 82.552-67.161 149.714-149.714 149.714z"/><path d="M320.337 213.328h-40.329V176.65h40.329c4.143 0 7.5-3.358 7.5-7.5s-3.357-7.5-7.5-7.5h-40.329v-36.67h16.776c4.143 0 7.5-3.358 7.5-7.5s-3.357-7.5-7.5-7.5h-16.776V93.202c0-4.142-3.357-7.5-7.5-7.5s-7.5 3.358-7.5 7.5v16.777H228.33V69.65c0-4.142-3.357-7.5-7.5-7.5s-7.5 3.358-7.5 7.5v40.329h-36.678V69.65a7.5 7.5 0 0 0-15 0v40.329h-36.67V93.194a7.5 7.5 0 0 0-15 0v16.785H93.196a7.5 7.5 0 0 0 0 15h16.785v36.67H69.652a7.5 7.5 0 0 0 0 15h40.329v36.678H69.652a7.5 7.5 0 0 0 0 15h40.329v36.678H93.196a7.5 7.5 0 0 0 0 15h16.785v16.785a7.5 7.5 0 0 0 15 0v-16.785h36.67v40.329a7.5 7.5 0 0 0 15 0v-40.329h36.678v40.329c0 4.142 3.357 7.5 7.5 7.5s7.5-3.358 7.5-7.5v-40.329h36.679v16.777c0 4.142 3.357 7.5 7.5 7.5s7.5-3.358 7.5-7.5v-16.777h16.776c4.143 0 7.5-3.358 7.5-7.5s-3.357-7.5-7.5-7.5h-16.776v-36.678h40.329a7.5 7.5 0 1 0 0-14.999zm-55.329 0H228.33V176.65h36.679v36.678h-.001zm-51.678 0h-36.678V176.65h36.678v36.678zm51.678-88.349v36.67H228.33v-36.67h36.678zm-51.678 0v36.67h-36.678v-36.67h36.678zm-88.349 0h36.67v36.67h-36.67v-36.67zm0 51.67h36.67v36.678h-36.67v-36.678zm0 88.357v-36.678h36.67v36.678h-36.67zm51.67 0v-36.678h36.678v36.678h-36.678zm88.357 0H228.33v-36.678h36.679v36.678h-.001z"/><path d="M352.382 309.953c23.625-32.257 37.599-72.006 37.599-114.962 0-42.958-13.975-82.708-37.602-114.966l14.431-14.431a7.5 7.5 0 0 0 0-10.606l-31.819-31.82a7.5 7.5 0 0 0-10.607 0l-14.431 14.431C277.695 13.973 237.947 0 194.99 0S112.285 13.974 80.028 37.599L65.596 23.167a7.5 7.5 0 0 0-10.606 0l-31.82 31.82a7.5 7.5 0 0 0 0 10.606l14.431 14.431C13.974 112.283 0 152.033 0 194.991c0 42.957 13.973 82.705 37.599 114.962L23.17 324.381a7.497 7.497 0 0 0 0 10.606l31.82 31.82a7.474 7.474 0 0 0 5.303 2.197 7.474 7.474 0 0 0 5.303-2.197l14.428-14.428c32.258 23.627 72.008 37.602 114.966 37.602s82.708-13.975 114.966-37.602l14.428 14.427c1.464 1.465 3.384 2.197 5.303 2.197s3.839-.732 5.304-2.197l31.819-31.82a7.5 7.5 0 0 0 0-10.606l-14.428-14.427zM329.687 39.077 350.9 60.291l-7.902 7.902a196.701 196.701 0 0 0-21.213-21.213l7.902-7.903zM39.08 60.291l21.213-21.213 7.902 7.902a196.801 196.801 0 0 0-21.214 21.213l-7.901-7.902zm21.213 290.606L39.08 329.684l7.899-7.899a196.801 196.801 0 0 0 21.213 21.214l-7.899 7.898zM15 194.991C15 95.744 95.743 15 194.99 15c99.248 0 179.991 80.744 179.991 179.991s-80.743 179.99-179.991 179.99C95.743 374.981 15 294.238 15 194.991zm314.687 155.906-7.899-7.898a196.62 196.62 0 0 0 21.213-21.214l7.899 7.898-21.213 21.214z"/></svg><svg viewBox="0 0 70 70" id="conf-5" xmlns="http://www.w3.org/2000/svg"><g clip-path="url(#ga)"><path fill-rule="evenodd" clip-rule="evenodd" d="M45.396 54.991c-1.353 0-1.64-2.01-.287-2.337l2.214-.615v-4.06c-1.025.287-2.665 1.066-3.075-.41-.37-1.476 1.599-1.64 3.075-2.05v-4.02c-1.025.247-2.665 1.026-3.075-.41-.37-1.517 1.599-1.68 3.075-2.05v-4.06c-1.025.247-2.665 1.026-3.075-.41-.37-1.517 1.599-1.68 3.075-2.05v-7.381c-.738 0-2.132.164-2.132-1.19v-5.166h-6.07a1.19 1.19 0 0 1-1.189-1.19v-7.094c0-.656.534-1.19 1.19-1.19h29.69c.655 0 1.189.534 1.189 1.19v7.094a1.19 1.19 0 0 1-1.19 1.19h-6.11v5.167c0 1.353-1.394 1.189-2.091 1.189v3.813c1.066-.287 2.665-1.025 3.034.41.41 1.477-1.599 1.64-3.034 2.05v4.06c1.066-.286 2.665-1.024 3.034.41.41 1.477-1.599 1.641-3.034 2.051v4.06c1.066-.287 2.665-1.025 3.034.41.41 1.476-1.599 1.64-3.034 2.05v4.06c1.066-.328 2.665-1.025 3.034.41.41 1.477-1.599 1.64-3.034 2.01v8.57a1.19 1.19 0 0 1-1.19 1.19H48.513a1.19 1.19 0 0 1-1.19-1.19V54.5l-1.927.492Zm-16.157 5.7h-18.7c-.41 0-.82-.246-1.025-.615L.164 43.878a1.227 1.227 0 0 1 0-1.189l9.35-16.198c.205-.369.615-.574 1.025-.574h18.7c.451 0 .82.205 1.025.574l9.39 16.198c.206.37.206.82 0 1.19l-9.39 16.197a1.158 1.158 0 0 1-1.025.615Zm-18.002-2.378H18.7v-6.11h-3.28c-.41 0-.82-.205-1.026-.574l-4.47-7.75a1.227 1.227 0 0 1 0-1.19l4.47-7.71a1.21 1.21 0 0 1 1.025-.614H18.7v-6.07h-7.463l-8.694 15.01 8.694 15.008Zm9.841 0h7.505l8.652-15.009-8.652-15.009h-7.505v6.07h3.281c.41 0 .82.245 1.025.615l4.47 7.709c.205.37.205.82 0 1.19l-4.47 7.75c-.205.369-.615.574-1.025.574h-3.28v6.11Zm25.302-41.91h21.242v-4.716H40.311v4.716h6.07Zm2.133 6.356h11.81v-3.977H47.569v3.977h.944Zm1.189 28.665 8.53-2.297v-4.06l-8.53 2.297v4.06Zm8.53.164-8.53 2.296v4.429h8.53v-6.725Zm0-8.981v-4.06l-8.53 2.297v4.06l8.53-2.297Zm0-6.52v-4.06l-8.53 2.297v4.06l8.53-2.297Zm0-6.52v-4.43h-8.53v6.726l8.53-2.296ZM16.115 49.824h7.546l3.773-6.52-3.773-6.561h-7.546l-3.772 6.561 3.772 6.52Z"/></g><defs><clipPath id="ga"><path d="M0 0h70v70H0z"/></clipPath></defs></svg><svg version="1.0" viewBox="0 0 36 60" id="conf-6" xmlns="http://www.w3.org/2000/svg"><path d="M5.4 3.1c-.4.6-.8 12.6-1 26.6-.2 13.9-.6 25.8-.9 26.3-.4.6 4.8 1 14 1 10.4 0 14.4-.3 13.9-1.1-.3-.6-.7-12.4-.8-26.3 0-13.8-.5-25.7-.9-26.4-1.1-1.6-23.3-1.7-24.3-.1zm22.1 11.1c.3 5.1.5 15.8.3 23.8l-.3 14.5h-20l-.3-23.8L7 5h19.8l.7 9.2z"/></svg><svg viewBox="0 0 56 56" id="conf-7" xmlns="http://www.w3.org/2000/svg"><path fill-rule="evenodd" clip-rule="evenodd" d="M18.444 7.684v42.632c0 .314-.128.615-.357.837-.23.222-.54.347-.865.347-.324 0-.635-.125-.864-.347a1.166 1.166 0 0 1-.358-.837V7.684c0-.314.129-.615.358-.837.23-.222.54-.347.864-.347.324 0 .635.125.864.347.23.222.358.523.358.837Zm19.556 0v42.632c0 .314-.129.615-.358.837-.23.222-.54.347-.864.347-.324 0-.635-.125-.864-.347a1.166 1.166 0 0 1-.358-.837V7.684c0-.314.128-.615.358-.837.229-.222.54-.347.864-.347.324 0 .635.125.864.347.23.222.358.523.358.837Z"/></svg><svg viewBox="0 0 58 57" id="conf-8" xmlns="http://www.w3.org/2000/svg"><path d="M26 .5c0 .275.225.5.5.5s.5-.225.5-.5-.225-.5-.5-.5-.5.225-.5.5m5.333.167a.948.948 0 0 0 1.334 0C33.033.3 32.733 0 32 0c-.733 0-1.033.3-.667.667M19 1.5c0 .275.225.5.5.5s.5-.225.5-.5-.225-.5-.5-.5-.5.225-.5.5m-2 1c0 .275.225.5.5.5s.5-.225.5-.5-.225-.5-.5-.5-.5.225-.5.5m16.333 1.167a.948.948 0 0 0 1.334 0C35.033 3.3 34.733 3 34 3c-.733 0-1.033.3-.667.667M21 5.5c0 .275.225.5.5.5s.5-.225.5-.5-.225-.5-.5-.5-.5.225-.5.5m18 0c0 .275.225.5.5.5s.5-.225.5-.5-.225-.5-.5-.5-.5.225-.5.5m-21 1c0 .275.225.5.5.5s.5-.225.5-.5-.225-.5-.5-.5-.5.225-.5.5m29 0c0 .275.225.5.5.5s.5-.225.5-.5-.225-.5-.5-.5-.5.225-.5.5m-23 1c0 .275.225.5.5.5s.5-.225.5-.5-.225-.5-.5-.5-.5.225-.5.5m18 0c0 .275.225.5.5.5s.5-.225.5-.5-.225-.5-.5-.5-.5.225-.5.5M6.613 9.183c.289.467.944.591 1.456.274 1.308-.808 1.161-1.124-.525-1.124-.801 0-1.22.383-.931.85M36 8.5c0 .275.225.5.5.5s.5-.225.5-.5-.225-.5-.5-.5-.5.225-.5.5m-33 1c0 .275.225.5.5.5s.5-.225.5-.5-.225-.5-.5-.5-.5.225-.5.5m22 0c0 .275.225.5.5.5s.5-.225.5-.5-.225-.5-.5-.5-.5.225-.5.5m17 0c0 .275.225.5.5.5s.5-.225.5-.5-.225-.5-.5-.5-.5.225-.5.5m-30 1c0 .275.225.5.5.5s.5-.225.5-.5-.225-.5-.5-.5-.5.225-.5.5m39 0c0 .275.225.5.5.5s.5-.225.5-.5-.225-.5-.5-.5-.5.225-.5.5m-36.397 1.333c-.283.459.12.834.897.834s1.18-.375.897-.834c-.283-.458-.687-.833-.897-.833-.21 0-.614.375-.897.833M25 11.5c0 .275.225.5.5.5s.5-.225.5-.5-.225-.5-.5-.5-.5.225-.5.5m20 1c0 .275.225.5.5.5s.5-.225.5-.5-.225-.5-.5-.5-.5.225-.5.5m-36 1c0 .275.225.5.5.5s.5-.225.5-.5-.225-.5-.5-.5-.5.225-.5.5m9 0c0 .275.225.5.5.5s.5-.225.5-.5-.225-.5-.5-.5-.5.225-.5.5m7.079 1.083c.048 1.165.285 1.402.604.605.289-.722.253-1.585-.079-1.917-.332-.332-.568.258-.525 1.312m5 0c.048 1.165.285 1.402.604.605.289-.722.253-1.585-.079-1.917-.332-.332-.568.258-.525 1.312M48.5 14c.34.55.843 1 1.118 1 .275 0 .222-.45-.118-1-.34-.55-.843-1-1.118-1-.275 0-.222.45.118 1m3.5.5c0 .275.225.5.5.5s.5-.225.5-.5-.225-.5-.5-.5-.5.225-.5.5m-49 1c0 .275.225.5.5.5s.5-.225.5-.5-.225-.5-.5-.5-.5.225-.5.5m37 0c0 .275.225.5.5.5s.5-.225.5-.5-.225-.5-.5-.5-.5.225-.5.5m-33 1c0 .275.225.5.5.5s.5-.225.5-.5-.225-.5-.5-.5-.5.225-.5.5m41 0c0 .275.225.5.5.5s.5-.225.5-.5-.225-.5-.5-.5-.5.225-.5.5m5 0c0 .275.225.5.5.5s.5-.225.5-.5-.225-.5-.5-.5-.5.225-.5.5m-41 1c0 .275.225.5.5.5s.5-.225.5-.5-.225-.5-.5-.5-.5.225-.5.5m31 0c0 .275.225.5.5.5s.5-.225.5-.5-.225-.5-.5-.5-.5.225-.5.5m-34 1c0 .275.225.5.5.5s.5-.225.5-.5-.225-.5-.5-.5-.5.225-.5.5m6 0c0 .275.225.5.5.5s.5-.225.5-.5-.225-.5-.5-.5-.5.225-.5.5m3.459.567c-.363.586-.445 1.281-.183 1.543s.743-.218 1.069-1.067c.676-1.762.1-2.072-.886-.476M22 18.5c0 .275.225.5.5.5s.5-.225.5-.5-.225-.5-.5-.5-.5.225-.5.5m7 0c0 .275.225.5.5.5s.5-.225.5-.5-.225-.5-.5-.5-.5.225-.5.5m4 0c0 .275.225.5.5.5s.5-.225.5-.5-.225-.5-.5-.5-.5.225-.5.5m4 0c0 .275.225.5.5.5s.5-.225.5-.5-.225-.5-.5-.5-.5.225-.5.5m-12 1c0 .275.225.5.5.5s.5-.225.5-.5-.225-.5-.5-.5-.5.225-.5.5m29 .5c0 .733.3 1.033.667.667a.948.948 0 0 0 0-1.334C54.3 18.967 54 19.267 54 20m-24 .5c0 .275.225.5.5.5s.5-.225.5-.5-.225-.5-.5-.5-.5.225-.5.5m10 0c0 .275.225.5.5.5s.5-.225.5-.5-.225-.5-.5-.5-.5.225-.5.5m-37 1c0 .275.225.5.5.5s.5-.225.5-.5-.225-.5-.5-.5-.5.225-.5.5m22 .5c0 .733.3 1.033.667.667a.948.948 0 0 0 0-1.334C25.3 20.967 25 21.267 25 22m5 .5c0 .275.225.5.5.5s.5-.225.5-.5-.225-.5-.5-.5-.5.225-.5.5m-27 1c0 .275.225.5.5.5s.5-.225.5-.5-.225-.5-.5-.5-.5.225-.5.5m12 0c0 .275.225.5.5.5s.5-.225.5-.5-.225-.5-.5-.5-.5.225-.5.5m-15 1c0 .275.225.5.5.5s.5-.225.5-.5-.225-.5-.5-.5-.5.225-.5.5m7 0c0 .275.225.5.5.5s.5-.225.5-.5-.225-.5-.5-.5-.5.225-.5.5m2 1c0 .275.225.5.5.5s.5-.225.5-.5-.225-.5-.5-.5-.5.225-.5.5m17 0c0 .275.225.5.5.5s.5-.225.5-.5-.225-.5-.5-.5-.5.225-.5.5m9.333.167a.948.948 0 0 0 1.334 0C37.033 25.3 36.733 25 36 25c-.733 0-1.033.3-.667.667M46 25.5c0 .275.225.5.5.5s.5-.225.5-.5-.225-.5-.5-.5-.5.225-.5.5M4 28c0 .733.3 1.033.667.667a.948.948 0 0 0 0-1.334C4.3 26.967 4 27.267 4 28m14-.5c0 .275.225.5.5.5s.5-.225.5-.5-.225-.5-.5-.5-.5.225-.5.5m-18 2c0 .275.225.5.5.5s.5-.225.5-.5-.225-.5-.5-.5-.5.225-.5.5m25 0c0 .275.225.5.5.5s.5-.225.5-.5-.225-.5-.5-.5-.5.225-.5.5m5 0c0 .275.225.5.5.5s.5-.225.5-.5-.225-.5-.5-.5-.5.225-.5.5m21 0c0 .275.225.5.5.5s.5-.225.5-.5-.225-.5-.5-.5-.5.225-.5.5m4 1c0 .275.225.5.5.5s.5-.225.5-.5-.225-.5-.5-.5-.5.225-.5.5m-48 1c0 .275.225.5.5.5s.5-.225.5-.5-.225-.5-.5-.5-.5.225-.5.5m44 0c0 .275.225.5.5.5s.5-.225.5-.5-.225-.5-.5-.5-.5.225-.5.5m-33 2c0 .275.225.5.5.5s.5-.225.5-.5-.225-.5-.5-.5-.5.225-.5.5m22 .5c0 .733.3 1.033.667.667a.948.948 0 0 0 0-1.334C40.3 32.967 40 33.267 40 34m-10 .5c0 .275.225.5.5.5s.5-.225.5-.5-.225-.5-.5-.5-.5.225-.5.5m-29 2c0 .275.225.5.5.5s.5-.225.5-.5-.225-.5-.5-.5-.5.225-.5.5m3 .5c0 .733.3 1.033.667.667a.948.948 0 0 0 0-1.334C4.3 35.967 4 36.267 4 37m14-.5c0 .275.225.5.5.5s.5-.225.5-.5-.225-.5-.5-.5-.5.225-.5.5m12 0c0 .275.225.5.5.5s.5-.225.5-.5-.225-.5-.5-.5-.5.225-.5.5m-24 1c0 .275.225.5.5.5s.5-.225.5-.5-.225-.5-.5-.5-.5.225-.5.5m3 0c0 .275.225.5.5.5s.5-.225.5-.5-.225-.5-.5-.5-.5.225-.5.5m40 0c0 .275.225.5.5.5s.5-.225.5-.5-.225-.5-.5-.5-.5.225-.5.5m-37 1c0 .275.225.5.5.5s.5-.225.5-.5-.225-.5-.5-.5-.5.225-.5.5m31 .5c0 .733.3 1.033.667.667a.948.948 0 0 0 0-1.334C43.3 37.967 43 38.267 43 39m-33 .5c0 .275.225.5.5.5s.5-.225.5-.5-.225-.5-.5-.5-.5.225-.5.5m35 0c0 .275.225.5.5.5s.5-.225.5-.5-.225-.5-.5-.5-.5.225-.5.5m8 0c0 .275.225.5.5.5s.5-.225.5-.5-.225-.5-.5-.5-.5.225-.5.5m-50 1c0 .275.225.5.5.5s.5-.225.5-.5-.225-.5-.5-.5-.5.225-.5.5m11.333.167a.948.948 0 0 0 1.334 0C16.033 40.3 15.733 40 15 40c-.733 0-1.033.3-.667.667m5.48.016c.721.289 1.584.253 1.916-.079.332-.332-.258-.568-1.312-.525-1.165.048-1.402.285-.604.604m8 0c.721.289 1.584.253 1.916-.079.332-.332-.258-.568-1.312-.525-1.165.048-1.402.285-.604.604m5.937-.021c.688.278 1.813.278 2.5 0 .688-.277.125-.504-1.25-.504s-1.937.227-1.25.504M40 41c0 .733.3 1.033.667.667a.948.948 0 0 0 0-1.334C40.3 39.967 40 40.267 40 41m7 .5c0 .275.225.5.5.5s.5-.225.5-.5-.225-.5-.5-.5-.5.225-.5.5m-38 1c0 .275.225.5.5.5s.5-.225.5-.5-.225-.5-.5-.5-.5.225-.5.5m9 0c0 .275.225.5.5.5s.5-.225.5-.5-.225-.5-.5-.5-.5.225-.5.5m7 0c0 .275.225.5.5.5s.5-.225.5-.5-.225-.5-.5-.5-.5.225-.5.5m14 1c0 .275.225.5.5.5s.5-.225.5-.5-.225-.5-.5-.5-.5.225-.5.5m-21 3c0 .275.225.5.5.5s.5-.225.5-.5-.225-.5-.5-.5-.5.225-.5.5m17 1c0 .275.225.5.5.5s.5-.225.5-.5-.225-.5-.5-.5-.5.225-.5.5m-22 1c0 .275.225.5.5.5s.5-.225.5-.5-.225-.5-.5-.5-.5.225-.5.5m-4 1c0 .275.225.5.5.5s.5-.225.5-.5-.225-.5-.5-.5-.5.225-.5.5m7 1c0 .275.225.5.5.5s.5-.225.5-.5-.225-.5-.5-.5-.5.225-.5.5m6 0c0 .275.225.5.5.5s.5-.225.5-.5-.225-.5-.5-.5-.5.225-.5.5m13 0c0 .275.225.5.5.5s.5-.225.5-.5-.225-.5-.5-.5-.5.225-.5.5m-11 1c0 .275.225.5.5.5s.5-.225.5-.5-.225-.5-.5-.5-.5.225-.5.5m5.813.183c.721.289 1.584.253 1.916-.079.332-.332-.258-.568-1.312-.525-1.165.048-1.402.285-.604.604M22 52.5c0 .275.225.5.5.5s.5-.225.5-.5-.225-.5-.5-.5-.5.225-.5.5m12 0c0 .275.225.5.5.5s.5-.225.5-.5-.225-.5-.5-.5-.5.225-.5.5m6 0c0 .275.225.5.5.5s.5-.225.5-.5-.225-.5-.5-.5-.5.225-.5.5m6 0c0 .275.225.5.5.5s.5-.225.5-.5-.225-.5-.5-.5-.5.225-.5.5m-27 2c0 .275.225.5.5.5s.5-.225.5-.5-.225-.5-.5-.5-.5.225-.5.5m2 0c0 .275.225.5.5.5s.5-.225.5-.5-.225-.5-.5-.5-.5.225-.5.5m2 1c0 .275.225.5.5.5s.5-.225.5-.5-.225-.5-.5-.5-.5.225-.5.5" fill-rule="evenodd"/><path d="M17.595 2.536c-4.543 1.886-6.223 2.187-7.286 1.305-2.133-1.77-7.6 3.747-6.236 6.295.727 1.36.411 3.092-1.207 6.604-3.039 6.594-3.038 16.067.002 22.586 1.816 3.893 2.013 5.112 1.02 6.309-1.773 2.136 4.271 8.308 6.403 6.538 1.085-.9 2.076-.838 4.309.27 2.941 1.46 6.293 2.364 12.123 3.269C30.632 56.319 40 54.218 40 52.734c0-.587.296-.771.658-.409.362.362 1.233.18 1.936-.403.882-.732 1.873-.742 3.196-.034 1.56.834 2.441.481 4.716-1.895 2.184-2.279 2.548-3.223 1.659-4.294-.873-1.052-.642-2.407.987-5.778 3.822-7.91 3.437-15.971-1.25-26.243-1.081-2.368-1.056-2.966.155-3.72 1.173-.731.845-1.499-1.748-4.1-2.625-2.634-3.454-2.983-4.674-1.97-1.194.991-2.26.834-5.479-.809C37.939 1.949 33.34.827 29.829.562c-5.17-.39-7.41-.029-12.234 1.974m2.112 2.076C14.139 6.324 8.054 11.915 5.096 18.038c-1.547 3.2-1.93 5.756-1.709 11.376.246 6.261.72 7.881 3.476 11.888C12.522 49.527 19.001 53 28.682 53c13.086 0 24.24-11.353 24.296-24.73.028-6.696-2.341-12.789-6.801-17.493-6.955-7.334-15.892-9.416-26.47-6.165m1.473 1.116C5.488 10.35-.315 29.211 9.796 42.734 14.212 48.642 20.542 51.43 29 51.195 42.016 50.832 51.177 41.343 51.394 28c.086-5.245-.364-7.272-2.328-10.5-3.611-5.933-8.945-10.356-14.498-12.021-5.906-1.771-6.57-1.759-13.388.249M47 6.941c0 .518.445 1.216.989 1.552.566.35.734-.051.393-.941C47.717 5.82 47 5.503 47 6.941m-39.886.988c-.859.532-.962 1.047-.29 1.462.571.353 1.339.154 1.707-.441.918-1.486.188-2.012-1.417-1.021m12.374 1.365C1.991 17.65 3.951 42.807 22.504 48.001c12.448 3.485 24.744-5.148 26.24-18.424.61-5.406-2.838-13.686-7.127-17.115-5.611-4.486-5.158-4.303-12.586-5.085-3.426-.361-5.753.107-9.543 1.917M23 12.417C23 15.235 22.605 16 21.153 16c-1.016 0-2.341-1.012-2.945-2.25L17.11 11.5l-.671 2.25c-.407 1.362-1.464 2.25-2.678 2.25-1.663 0-1.795.255-.77 1.489.68.819 1.635 1.242 2.122.941.488-.301.887.738.887 2.31 0 2.697-.205 2.834-3.625 2.435-2.752-.321-3.516-.092-3.173.951.249.756 1.88 1.515 3.625 1.687C15.15 26.043 16 26.628 16 28c0 1.372-.85 1.957-3.173 2.187-4.584.452-4.929 2.813-.41 2.813 3.108 0 3.583.316 3.583 2.383 0 1.585-.754 2.633-2.25 3.127l-2.25.744 2.25.443c1.403.276 2.25 1.168 2.25 2.373 0 2.531 1.69 2.484 2.5-.07.349-1.1 1.504-2 2.567-2 1.542 0 1.933.707 1.933 3.5 0 2.515.442 3.5 1.572 3.5 1.049 0 1.475-.748 1.28-2.25-.352-2.724.776-4.75 2.644-4.75.815 0 1.505 1.296 1.691 3.173.452 4.584 2.813 4.929 2.813.41 0-2.935.367-3.583 2.032-3.583 1.169 0 2.422.956 2.949 2.25l.917 2.25.665-2.239c.365-1.231 1.032-2.011 1.482-1.733.449.277 1.136-.012 1.526-.643.391-.632-.028-1.561-.931-2.066-.902-.505-1.64-1.796-1.64-2.869 0-1.562.696-1.95 3.5-1.95 4.641 0 4.856-2.743.25-3.187-4.162-.401-4.398-3.093-.332-3.803 4.394-.768 4.517-3.01.165-3.01-4.176 0-4.662-1.632-1.333-4.482l2.25-1.927-2.309-.546c-1.27-.3-2.282-.883-2.25-1.295.17-2.161-.031-2.75-.941-2.75-.55 0-1 .9-1 2 0 1.467-.667 2-2.5 2-2.202 0-2.5-.428-2.5-3.583 0-2.436-.4-3.442-1.25-3.142-.722.256-1.143 1.77-.996 3.584.233 2.881.005 3.141-2.753 3.141-2.762 0-2.987-.258-2.754-3.158.147-1.833-.272-3.336-.997-3.583-.847-.288-1.25.731-1.25 3.158m-4.577 6.707c-.867 1.403.845 3.876 2.684 3.876C22.412 23 23 22.29 23 20.714c0-1.646-.58-2.285-2.073-2.285-1.141 0-2.267.313-2.504.695m9.077-.211c-1.1.323-2.132 1.375-2.294 2.337-.225 1.342.403 1.75 2.693 1.75 2.511 0 2.921-.34 2.575-2.135-.511-2.652-.535-2.668-2.974-1.952M33 20.75c0 1.733.574 2.25 2.5 2.25 1.926 0 2.5-.517 2.5-2.25s-.574-2.25-2.5-2.25c-1.926 0-2.5.517-2.5 2.25m-7.267 6.868C25.342 29.663 25.669 30 28.045 30c2.231 0 2.671-.37 2.269-1.908-.784-2.995-4.035-3.332-4.581-.474m8.517-1.951c-.687.275-1.25 1.362-1.25 2.416 0 1.392.704 1.917 2.57 1.917 2.068 0 2.507-.423 2.25-2.172-.337-2.289-1.496-2.991-3.57-2.161m-15.514.931c-1.12 1.119.472 3.402 2.371 3.402C22.333 30 23 29.296 23 28c0-1.907-2.83-2.837-4.264-1.402m-.241 8.652c.106 1.479.906 2.36 2.333 2.57 1.749.257 2.172-.182 2.172-2.25 0-2.026-.494-2.57-2.333-2.57-1.8 0-2.296.514-2.172 2.25M26 35.5c0 2.165.404 2.582 2.25 2.32 1.477-.21 2.25-1.007 2.25-2.32s-.773-2.11-2.25-2.32c-1.846-.262-2.25.155-2.25 2.32m7 0c0 2 .5 2.5 2.5 2.5s2.5-.5 2.5-2.5-.5-2.5-2.5-2.5-2.5.5-2.5 2.5M7 47.378c0 .207.787.995 1.75 1.75 1.586 1.243 1.621 1.208.378-.378C7.821 47.084 7 46.555 7 47.378m40.405.777c-.443.715-.275.883.44.44 1.153-.712 1.548-1.595.714-1.595-.243 0-.762.52-1.154 1.155" fill-rule="evenodd"/></svg><svg viewBox="0 0 24 24" id="email" xmlns="http://www.w3.org/2000/svg"><path d="M16.583 19.792H7.416c-2.75 0-4.583-1.375-4.583-4.584V8.792c0-3.209 1.833-4.584 4.583-4.584h9.167c2.75 0 4.583 1.375 4.583 4.584v6.416c0 3.209-1.833 4.584-4.583 4.584Z"/><path d="m16.584 9.25-2.87 2.292c-.944.751-2.493.751-3.437 0L7.417 9.25"/></svg><svg viewBox="0 0 22 22" id="tel" xmlns="http://www.w3.org/2000/svg"><path d="M18.974 16.064c0 .288-.064.584-.2.872a3.3 3.3 0 0 1-.544.816 3.605 3.605 0 0 1-1.312.944c-.48.2-1 .304-1.56.304-.816 0-1.688-.192-2.608-.584-.92-.392-1.84-.92-2.752-1.584a23.003 23.003 0 0 1-2.624-2.24 22.73 22.73 0 0 1-2.232-2.616c-.656-.912-1.184-1.824-1.568-2.728-.384-.912-.576-1.784-.576-2.616 0-.544.096-1.064.288-1.544.192-.488.496-.936.92-1.336C4.718 3.248 5.278 3 5.87 3c.224 0 .448.048.648.144.208.096.392.24.536.448L8.91 6.208c.144.2.248.384.32.56.072.168.112.336.112.488 0 .192-.056.384-.168.568a2.721 2.721 0 0 1-.448.568l-.608.632a.428.428 0 0 0-.128.32c0 .064.008.12.024.184.024.064.048.112.064.16.144.264.392.608.744 1.024.36.416.744.84 1.16 1.264.432.424.848.816 1.272 1.176.416.352.76.592 1.032.736.04.016.088.04.144.064a.552.552 0 0 0 .2.032.44.44 0 0 0 .328-.136l.608-.6c.2-.2.392-.352.576-.448.184-.112.368-.168.568-.168.152 0 .312.032.488.104s.36.176.56.312l2.648 1.88c.208.144.352.312.44.512.08.2.128.4.128.624Z"/></svg><svg viewBox="0 0 24 24" id="tg" xmlns="http://www.w3.org/2000/svg"><path d="M20.124 3.188c-.26.011-.502.087-.716.173-.2.08-.963.408-2.165.923-1.204.517-2.797 1.2-4.497 1.932l-9.18 3.95c-.074.031-.33.113-.603.326-.273.213-.563.654-.563 1.145 0 .397.19.79.427 1.025.238.236.49.352.705.44L7.196 14.6c.16.494 1.038 3.178 1.242 3.836.134.434.262.706.428.922.083.108.18.202.297.276.047.03.098.053.15.074l.003.001c.012.005.022.013.034.018.023.008.039.009.07.015.121.04.244.064.354.064.468 0 .755-.258.755-.258l.017-.012 2.408-2.083 2.92 2.763c.04.058.424.584 1.27.584.502 0 .9-.252 1.156-.52.256-.269.415-.55.483-.905v-.002c.064-.334 2.755-14.151 2.755-14.151l-.005.019c.079-.36.1-.695.013-1.025a1.398 1.398 0 0 0-.6-.818 1.438 1.438 0 0 0-.822-.21Zm-.15 1.671c-.004.024.003.012-.003.04l-.002.009-.001.01s-2.658 13.64-2.757 14.159c.008-.04-.025.038-.059.085-.048-.032-.145-.075-.145-.075l-.016-.017-3.989-3.773-2.82 2.437.839-3.359s5.245-5.43 5.56-5.745c.255-.253.309-.341.309-.428 0-.117-.061-.202-.197-.202-.123 0-.287.119-.375.175-1.147.73-6.18 3.664-8.436 4.977-.359-.147-2.85-1.167-3.694-1.511l.01-.005c1.96-.842 5.78-2.488 9.179-3.95 1.7-.73 3.294-1.416 4.497-1.931 1.184-.508 2.007-.857 2.1-.896Z"/></svg><svg viewBox="0 0 24 24" id="vb" xmlns="http://www.w3.org/2000/svg"><path d="M11.774 3c-1.425 0-4.95.15-6.824 1.95C3.6 6.225 3.075 8.175 3 10.5c-.15 3.675.674 6 2.024 7.2.3.225 1.051.826 2.476 1.276v1.875s0 .749.45.899c.075 0 .15.075.225.075.45 0 .824-.526 1.35-1.05.45-.526.825-.9 1.05-1.275h1.65c1.425 0 4.95-.15 6.825-1.95 1.35-1.35 1.875-3.3 1.875-5.776C21 11.4 21 10.95 21 10.5c-.075-2.775-.9-4.65-2.024-5.7-.45-.375-2.401-1.8-6.601-1.8h-.6Zm-.15 1.425h.676c3.975 0 5.475 1.276 5.625 1.426.9.75 1.425 2.4 1.5 4.574v.3c.075.45.075.824.075 1.05-.075 2.25-.525 3.75-1.425 4.725C16.5 17.925 13.2 18 12.3 18h-1.425l-1.2 1.35-.75.825-.15.224c-.15.15-.375.451-.525.526V17.55c-1.5-.375-2.1-.9-2.25-1.05-1.05-.9-1.65-3.075-1.5-6v-.75c.15-1.8.6-3 1.35-3.825 1.576-1.425 4.875-1.5 5.775-1.5Zm-.074 1.65a.264.264 0 0 0 0 .526c2.775 0 5.175 1.874 5.175 5.399 0 .375.525.375.525 0 0-3.825-2.55-6-5.7-5.925Zm-2.972.694a.656.656 0 0 0-.477.13c-.75.375-1.501 1.127-1.276 1.952 0 0 .15.674.975 2.099.45.675.825 1.275 1.2 1.725.375.525.975 1.125 1.575 1.575 1.2.975 3.075 1.95 3.9 2.175.75.225 1.575-.526 1.95-1.276a.715.715 0 0 0-.225-.899c-.45-.45-1.2-.974-1.724-1.274-.376-.225-.826-.076-.976.149l-.375.45c-.15.225-.524.225-.524.225-2.476-.675-3.151-3.225-3.151-3.225s0-.3.225-.525l.45-.375c.225-.15.374-.6.15-.975-.15-.225-.375-.675-.6-.9A22.06 22.06 0 0 0 9 6.976a.721.721 0 0 0-.422-.207Zm3.497.806C11.7 7.5 11.625 8.1 12 8.1c2.1.15 3.3 1.575 3.226 3.375-.076.375.524.375.524 0 .075-2.1-1.275-3.826-3.675-3.901ZM12.3 9c-.375-.075-.375.524 0 .524.9 0 1.35.526 1.35 1.426.074.375.6.375.6 0C14.175 9.75 13.5 9 12.3 9Z"/></svg><svg viewBox="0 0 24 24" id="wa" xmlns="http://www.w3.org/2000/svg"><path d="M12.012 2c-5.506 0-9.989 4.478-9.99 9.984a9.964 9.964 0 0 0 1.333 4.993L2 22l5.232-1.236a9.981 9.981 0 0 0 4.774 1.215h.004c5.505 0 9.985-4.48 9.988-9.985a9.922 9.922 0 0 0-2.922-7.066A9.923 9.923 0 0 0 12.012 2Zm-.002 2a7.95 7.95 0 0 1 5.652 2.342 7.929 7.929 0 0 1 2.336 5.65c-.002 4.404-3.584 7.986-7.99 7.986a7.999 7.999 0 0 1-3.817-.97l-.673-.367-.745.175-1.968.465.48-1.785.217-.8-.414-.72a7.98 7.98 0 0 1-1.067-3.992C4.023 7.582 7.607 4 12.01 4ZM8.477 7.375a.917.917 0 0 0-.666.313c-.23.248-.875.852-.875 2.08 0 1.228.894 2.415 1.02 2.582.123.166 1.726 2.765 4.263 3.765 2.108.831 2.536.667 2.994.625.458-.04 1.477-.602 1.685-1.185.208-.583.209-1.085.147-1.188-.062-.104-.229-.166-.479-.29-.249-.126-1.476-.728-1.705-.811-.229-.083-.396-.125-.562.125-.166.25-.643.81-.79.976-.145.167-.29.19-.54.065-.25-.126-1.054-.39-2.008-1.24-.742-.662-1.243-1.477-1.389-1.727-.145-.25-.013-.386.112-.51.112-.112.248-.291.373-.437.124-.146.167-.25.25-.416.083-.166.04-.313-.022-.438s-.547-1.357-.77-1.851c-.186-.415-.384-.425-.562-.432-.145-.006-.31-.006-.476-.006Z"/></svg></svg>